<?xml version="1.0" encoding="utf-8"?>
<!-- Generator: Adobe Illustrator 21.1.0, SVG Export Plug-In . SVG Version: 6.00 Build 0)  -->
<svg version="1.1" id="Layer_1" xmlns="http://www.w3.org/2000/svg" xmlns:xlink="http://www.w3.org/1999/xlink" x="0px" y="0px"
	 viewBox="0 0 1280 720" style="enable-background:new 0 0 1280 720;" xml:space="preserve">
<g>
	<path d="M775.4,330.9c-36.6,32.1-37.2,71-40.6,109.4c-2.7,30.1-5.8,60.5-12.9,89.8c-3.5,14.5-16.4,26.7-29.7,38.7
		c10.2-30.3-9.1-49.4-19.3-71.9c-16.2-35.7-29.3-72.8-43.7-109.3c-2.3-5.9-4.6-11.8-8.1-20.8c-17.4,53.2-3.3,112.6-50,158.9
		c-11.7-22.1-23.6-40.6-31.5-60.6c-8.2-20.5-12.6-42.4-19-65.1c-6.2,0-12.5,0-21.8,0c6.1-19.6,11.9-36.8,16.9-54.3
		c3-10.6,6-21.5,7.1-32.5c2.8-26.1,7.2-52.3-21.5-67.8c-4.5-2.4-7.5-4.4-17.9-18.6c42.6,11.8,55.2-16.8,72.8-39
		c8.7-11,20.5-19.7,32.1-27.8c-41.9,76.2-35.4,155-18.7,234.6c3.8-42.5,41.3-80.6,18.2-124.9c26.7,11,28.9,10.7,57.7,10.7
		c-20.1,38.1,0.3,73.8,17.7,107c24.2-27.2,21.4-72.4,19.3-101c-2-28.6,5-62.3-23.8-93.1c48,8,77.1-38.7,126.6-24.8
		c-54.5,41.7-52.3,99.6-56.1,156C744.1,326.5,757.3,328.4,775.4,330.9z"/>
</g>
</svg>
