<svg xmlns="http://www.w3.org/2000/svg" viewBox="0 0 219.7 306.87"><defs><style>.cls-1{fill:none;stroke:#1800ff;stroke-miterlimit:10;stroke-width:2px;}</style></defs><title>mä2</title><g id="Layer_2" data-name="Layer 2"><path class="cls-1" d="M222.67,141.73s36,16.67,41.47,30,18.87,35,28.53,41.33S305,209.4,305,209.4s-1-11,9.33-13.33,12.67,3.67,16,18S327,246.4,327,246.4l-8.67,16.67c-8.67,14.67-17,3.67-17,3.67l-3.73,23.33s-4,22.67-26.64,46.67-74,40.67-74,40.67-16.67,5.33-29.67-16-23-31.33-24.33-40.67-13.33-27.33-15-30.67-14.67-20-3-43a50.79,50.79,0,0,0-11.67-26.33" transform="translate(-112.57 -72.12)"/><path class="cls-1" d="M141.67,208.06s7,6,5.33,20.33-5.33,41.33-5.33,41.33-1.33,6,10.67,10.67c0,0,9,7.33,13.67,6.33" transform="translate(-112.57 -72.12)"/><path class="cls-1" d="M171,256.4s16.33-.67,18.67,11-6,12.33-6,12.33" transform="translate(-112.57 -72.12)"/><path class="cls-1" d="M169.33,277.73c-1,0-4.83,2.79-5.33-2.58s11.5-3,11.5-3,9.13,3.37,0,6.31" transform="translate(-112.57 -72.12)"/><path class="cls-1" d="M157.38,310.52c.38-.25.88-5.62,6-4.5a7,7,0,0,0,7.5-2.62s3.75-4.62,10.5-.62,22.75,6.63,22.75,6.63,9.38.63-1.75,3.88c0,0-16.87-1.62-21.37,2.25s-8.62,1.75-8.62,1.75-10.12-2.87-13.25,3.88c0,0-1.37,3.13-3.62,3.38s-1.25-4.12,0-6.87A32.4,32.4,0,0,0,157.38,310.52Z" transform="translate(-112.57 -72.12)"/><path class="cls-1" d="M189.25,313.15a13.62,13.62,0,0,1-6.38-1.88,5.91,5.91,0,0,0-6.87.94c-.5.31-7.25,2.31-10.75,1.93s-5,5.24-5,5.24" transform="translate(-112.57 -72.12)"/><path class="cls-1" d="M202.38,313.27s-3.87,3.38-8.87,12-22,10.75-29,6.38l-9-7.12" transform="translate(-112.57 -72.12)"/><path class="cls-1" d="M217.79,214.06c-.26.69,1.35,3.28,4.5,4.63" transform="translate(-112.57 -72.12)"/><path class="cls-1" d="M221.09,212.06s5.15,4.09,6.82,4" transform="translate(-112.57 -72.12)"/><path class="cls-1" d="M224.65,209.05a9.18,9.18,0,0,0,6.52,1.2" transform="translate(-112.57 -72.12)"/><path class="cls-1" d="M223.63,179.4c-25.62-3.12-45.37,14.13-47.75,16.5a15,15,0,0,1-4.62,3.25c-5-.87-6.87-4.75-6.87-5.15,0,0-1.37-3,4.13-7s35.58-19.75,49.23-15.37" transform="translate(-112.57 -72.12)"/><path class="cls-1" d="M330.33,214.06c-.67-80-37.33-110.67-56.67-128S226.33,74.06,206,73.4s-58.36,18-58.36,18" transform="translate(-112.57 -72.12)"/></g><g id="Layer_3" data-name="Layer 3"><path class="cls-1" d="M192.17,219.17s29.17.32,32.33-11.89" transform="translate(-112.57 -72.12)"/></g></svg>
