<svg id="Layer_1" data-name="Layer 1" xmlns="http://www.w3.org/2000/svg" viewBox="0 0 213.35 225.85"><defs><style>.cls-1{fill:none;stroke:#000;stroke-linecap:round;stroke-linejoin:round;stroke-width:0.75px;}.cls-2{font-size:14.93px;font-family:Vidaloka-Regular, Vidaloka ;}.cls-3{letter-spacing:-0.01em;}.cls-4{letter-spacing:-0.01em;}</style></defs><title>hotel_logo</title><path class="cls-1" d="M171.29,91.42c-.8-.56-1.72-.31-2.59-.33s-1.77.05-2.66.05c-2.66,0-5.31,0-8,0-2.18,0-4.36.28-6.54.31-3.27,0-6.54,0-9.81,0-1.5,0-3,.08-4.49.13-1.09,0-2.18.06-3.27.14-9,.62-18.07.34-27.1.4-1.36,0-2.72-.06-4.09-.06-2.22,0-4.45,0-6.67.07-2.57.06-5.13.22-7.7.25-2.93,0-5.86-.08-8.78,0-2,0-4,.22-6,.32-.47,0-1-.06-1.43-.06H64.65c-1.79,0-3.59,0-5.38,0A11.29,11.29,0,0,1,58,92.7c-2.54-.29-5.09-.06-7.63-.25a13.29,13.29,0,0,0-1.78.11" transform="translate(0 -16.49)"/><path class="cls-1" d="M64.24,18.21c0,1.07-.07,2.14-.14,3.2-.06.86-.19,1.72-.26,2.59,0,.52-.07,1-.07,1.57q0,3.13.07,6.26c0,2,.11,3.9.13,5.86,0,1.57-.06,3.13-.06,4.7,0,2.36.05,4.72.06,7.08,0,3.09,0,6.17,0,9.26,0,2.29,0,4.59.07,6.88s.15,4.77.19,7.15c0,1.57,0,3.13,0,4.7,0,.89,0,1.77,0,2.66,0,1.34-.13,2.68-.2,4s-.14,2.77-.2,4.15" transform="translate(0 -16.49)"/><path class="cls-1" d="M170.47,86.58c-.91.09-1.81.19-2.72.27-.57,0-1.13.06-1.7.07-1.23,0-2.45.07-3.68.07-3.4,0-6.81-.07-10.21-.06-3.7,0-7.4.08-11.1.13-2.16,0-4.31.11-6.47.13q-7.22.08-14.44.13c-1.41,0-2.82-.14-4.22-.12-3,.05-5.95.17-8.92.26l-7.76.27c-2.91.11-5.81.25-8.72.33-1.29,0-2.59-.06-3.88-.05-1.77,0-3.54.1-5.31.12-1.57,0-3.13,0-4.7,0-1.09,0-2.18.12-3.27.2-.23,0-.45.11-.68.13a16.15,16.15,0,0,1-1.84.13c-2,0-3.95-.17-5.92-.18-2.2,0-4.41-.09-6.6.09a49.71,49.71,0,0,1-7.09,0c-1.86-.11-3.72-.1-5.58-.15" transform="translate(0 -16.49)"/><path class="cls-1" d="M87.67,29c.33,0,.35.16.34.41q-.11,2.66-.21,5.31c0,.73-.06,1.45-.07,2.18,0,3.2-.06,6.4-.15,9.6-.05,1.66-.27,3.31-.39,5s-.22,3.09-.27,4.63c-.08,2.31-.1,4.63-.14,6.95,0,2-.07,4.09-.14,6.13-.06,1.73-.18,3.45-.26,5.18-.06,1.16-.12,2.32-.13,3.47,0,1.63,0,3.27.05,4.9,0,.27-.33,5-.4,5.26" transform="translate(0 -16.49)"/><path class="cls-1" d="M147.12,54.85a5.13,5.13,0,0,1,.13.82c0,7.4,0,14.8,0,22.2,0,2.5.17,5,.26,7.49,0,.54,0,1.09.07,1.63" transform="translate(0 -16.49)"/><path class="cls-1" d="M120.22,18c-.82-.07-1.63-.2-2.45-.19-2.2,0-4.4.14-6.61.11-3.36,0-6.72-.22-10.08-.24-1.93,0-3.86.13-5.79.26-1.18.08-2.36.32-3.54.38-.93,0-1.86-.11-2.79-.11a6.92,6.92,0,0,0-2.87.25l.21.49a.29.29,0,0,1,0,.1l.07,0" transform="translate(0 -16.49)"/><path class="cls-1" d="M86.65,19.91a.56.56,0,0,0,.34.75" transform="translate(0 -16.49)"/><path class="cls-1" d="M129.82,122.54c-.11-1.75-.26-3.49-.33-5.24s-.1-3.54-.07-5.31.2-3.45.25-5.18,0-3.36,0-5c0-2.68.13-5.36.2-8,0-.2,0-.41,0-.68h-3.81c-.14,0-.27.06-.41.06-2.91,0-5.81.07-8.72.06-1.63,0-3.27-.12-4.9-.12-2.43,0-4.86,0-7.29.06-3.31.05-6.63.17-9.94.19-2.56,0-5.13-.08-7.69-.12s-5-.14-7.56-.12-5.13.16-7.69.26c-1.82.07-3.63.21-5.45.26-1.11,0-2.22,0-3.34-.06-3,0-6.08,0-9.12-.08-.86,0-1.72-.14-2.59-.19a6.64,6.64,0,0,0-.88.06" transform="translate(0 -16.49)"/><path class="cls-1" d="M130.5,47.83c0,.82-.08,1.64-.06,2.45,0,1.34.12,2.68.2,4,0,.5.18,1,.19,1.5,0,2.32,0,4.63,0,6.95,0,2.77.09,5.54.13,8.31,0,2.5.08,5,.06,7.49,0,1.57-.21,3.13-.25,4.7,0,1.32,0,2.63.06,3.95" transform="translate(0 -16.49)"/><path class="cls-1" d="M174.15,33.47c.09,0,.21-.07.27-.14.75-1,1.49-2,2.27-3.08l-.57-.28c-.57.72-1.11,1.39-1.63,2.07a1.43,1.43,0,0,0-.41,1.43" transform="translate(0 -16.49)"/><path class="cls-1" d="M174,35.44c0,1.16-.07,2.32-.14,3.47s-.2,2.09-.26,3.13c-.15,2.45-.27,4.9-.42,7.35-.17,2.77-.36,5.54-.54,8.31q-.18,2.72-.34,5.45c-.12,2-.21,3.91-.35,5.86-.11,1.59-.31,3.18-.39,4.77-.06,1.18.08,2.36,0,3.54-.07,1.84-.22,3.68-.32,5.52-.06,1.18-.09,2.36-.14,3.54" transform="translate(0 -16.49)"/><path class="cls-1" d="M174.08,33.47c-.16.52-.66,3.08-.73,3.61-.14,1-.21,2-.28,3-.13,1.77-.23,3.54-.35,5.31-.05.8-.16,1.59-.2,2.38-.1,2.13-.16,4.27-.29,6.4-.15,2.41-.37,4.81-.53,7.22-.06.95.05,1.91,0,2.86-.1,1.21-.32,2.41-.46,3.61s-.28,2.22-.33,3.34c0,.9.15,1.82.1,2.72-.11,2-.33,3.95-.45,5.93-.06,1,0,2.09,0,3.13v3.54" transform="translate(0 -16.49)"/><path class="cls-1" d="M48.7,115.34c-2.49.23-1,.15-2.63.25-2.13.14-4.27.27-6.39.48-2.65.27-5.29.6-7.93,1-1.45.19-2.89.49-4.33.75-.12,0-2.34.4-2.45.47" transform="translate(0 -16.49)"/><path class="cls-1" d="M50.26,98.43l-3.13,1.09c-1.29.44-2.57.9-3.87,1.29a102.65,102.65,0,0,0-11.65,4.1c-1.12.49-2.22,1.05-3.34,1.55-.45.2-2.9,1.18-3.37,1.33" transform="translate(0 -16.49)"/><path class="cls-1" d="M132.13,93c0,.79-.09,1.59-.13,2.38,0,1-.08,2-.14,3-.08,1.41-.19,2.81-.26,4.22-.1,2.18-.2,4.36-.26,6.54q-.1,3.78-.13,7.56c0,.66.13,1.32.19,2,0,.29,0,.59,0,.88.05,1.23.11,2.45.17,3.77a3.23,3.23,0,0,1-.44,0l-7.13-.13c-1.91,0-3.82-.13-5.73-.13-4.11,0-8.22.07-12.32.13-2.18,0-4.35.11-6.53.12-1.24,0-2.49-.14-3.73-.11-2.22,0-4.44.22-6.66.25q-4.63.07-9.26,0c-3.84-.05-7.68-.17-11.53-.27-1.93-.05-3.86-.19-5.8-.19-2.27,0-4.54,0-6.79.22a20,20,0,0,0-4.08.41,9.15,9.15,0,0,1-2.32.1L40.2,124c-1.2,0-2.4,0-3.6,0-1.35,0-2.71,0-4.06,0s-2.93-.16-4.4-.28a20.9,20.9,0,0,1-2.33-.4" transform="translate(0 -16.49)"/><path class="cls-1" d="M131.25,23.86l-.2-1" transform="translate(0 -16.49)"/><path class="cls-1" d="M131.73,22c.83-.46,1-1.13.49-1.75l.31-1.31h-3.66c-.75,0-1.5,0-2.25,0s-1.77,0-2.66.07-1.63.23-2.45.25c-1.61,0-3.22,0-4.83,0-.7,0-1.41-.12-2.11-.12-1.77,0-3.54,0-5.31,0a4.47,4.47,0,0,1-.75-.13" transform="translate(0 -16.49)"/><path class="cls-1" d="M48.64,113.39l-.64.09-3.46.48-3.13.47c-.6.08-1.2.15-1.8.21-2.84.28-5.69.5-8.52.84a34.39,34.39,0,0,0-3.67.8c-.23.05-2.09.16-2.45.31.13.43-.14,1.22,0,1.66" transform="translate(0 -16.49)"/><path class="cls-1" d="M27,123.59" transform="translate(0 -16.49)"/><path class="cls-1" d="M146.91,109.8c0,.79,0,1.6-.15,2.38a78.58,78.58,0,0,0-.87,9.06c0,.64,0,1.27,0,2a10.21,10.21,0,0,0,1,.18q3,.22,6,.41c1.68.1,3.36.19,5,.27,2,.1,3.95.2,5.92.27,1.68.05,3.36,0,5,.09a15,15,0,0,1,3.75.37,3.8,3.8,0,0,0,1.29,0l4.22-.27c.77,0,1.54-.14,2.32-.13,1.14,0,2.27.13,3.41.19.36,0,.73,0,1.09,0,.91,0,1.87.52,2.72-.49,0-1.48,0-3,0-4.62,0-.09-.13-.18-.2-.27" transform="translate(0 -16.49)"/><path class="cls-1" d="M47.39,88.35c-.69.25-1.38.49-2.06.75l-7.26,2.79L30,95c-1.38.54-2.76,1.07-4.13,1.64a14.54,14.54,0,0,0-1.54.87" transform="translate(0 -16.49)"/><path class="cls-1" d="M48.56,98c-1.44.5-2.25.48-3.7.95s-2.94.84-4.39,1.31c-1.7.54-3.4,1.08-5.06,1.71-2.06.78-4.08,1.68-6.14,2.5-.76.3-4,1.52-4.78,1.76" transform="translate(0 -16.49)"/><path class="cls-1" d="M109,113.27l-5,.41h-.14c-3,0-6.08.12-9.12.12-1,0-2-.18-3.06-.25-.52,0-1,0-1.57,0l-3-.13.54,10.14" transform="translate(0 -16.49)"/><path class="cls-1" d="M109.39,96.32c-1.84,0-3.69,0-5.51.17s-3.81.21-5.72.25c-1,0-2.09.23-3.13.25-2.07,0-4.13,0-6.2-.06-.39,0-.77,0-1.16-.07" transform="translate(0 -16.49)"/><path class="cls-1" d="M109,111.26c-.36,0-1.48,0-1.84,0-1.39.08-2.78.12-4.15.28-1.82.21-3.63.17-5.45.36-1.44.15-2.9.13-4.36.15-.75,0-1.5-.08-2.25-.13-1.27-.09-2.54.25-3.81.16" transform="translate(0 -16.49)"/><path class="cls-1" d="M169.93,109.39l-5.18-.14c-2.16-.06-4.31-.19-6.47-.19-2,0-3.9.11-5.86.2-.52,0-1,.16-1.57.19s-1.32,0-2,0" transform="translate(0 -16.49)"/><path class="cls-1" d="M84.74,93.19l.2,3.13c-.31,0-.56.06-.81.06-2.34,0-4.68,0-7,.15-2,.1-4.09.37-6.13.52-1.13.09-2.27.15-3.4.13s-2.13-.17-3.2-.26" transform="translate(0 -16.49)"/><path class="cls-1" d="M131.32,23c2.07-.07,4.13-.21,6.2-.18,1.68,0,3.36.28,5,.37,1,.05,2,0,2.93-.06a4.9,4.9,0,0,1,1.42-.1c1,.28,1.6-.31,2.32-.66,1.48-.72,2.9-1.55,4.37-2.29a11.88,11.88,0,0,1,1.84-.68,2.27,2.27,0,0,1,1.76.41c1.81,1,3.59,2,5.39,3,1.63.91,3.25,1.86,4.91,2.71,1.19.61,2.47,1,3.66,1.66,1.6.83,3.14,1.76,4.71,2.64" transform="translate(0 -16.49)"/><path class="cls-1" d="M84.94,114.23c-.84,0-1.68.1-2.52.13-.48,0-1,0-1.43,0-3.25,0-6.49.11-9.74.13-1.84,0-3.68-.08-5.52-.12a6.8,6.8,0,0,0-.75.06" transform="translate(0 -16.49)"/><path class="cls-1" d="M130,42.86a4.41,4.41,0,0,0-.13.75c0,2.43,0,4.86,0,7.29,0,3.68-.09,7.35-.13,11,0,.64,0,1.27,0,1.91q-.13,5.41-.27,10.83c-.06,2.18,0,4.37-.24,6.53s.18,4,.11,6" transform="translate(0 -16.49)"/><path class="cls-1" d="M84.53,112.53c-1.11.07-2.22.18-3.34.2-2.36,0-4.72,0-7.08,0-1.25,0-2.5.12-3.75.12a20.38,20.38,0,0,1-2-.19l-3.4-.34" transform="translate(0 -16.49)"/><path class="cls-1" d="M45.11,31.15c-.07.2-.26,6.94-.27,7.14-.1,1.52.07-5,0-3.5,0,.84-.16,8-.17,8.89,0,1.57,0,2.65-.07,4.22-.08,2.11,0,4.36-.13,6.47,0,.52-.24,2.47-.24,3,0,.23.83,27.76.89,28" transform="translate(0 -16.49)"/><path class="cls-1" d="M84.13,97.82c-1.11,0-2.22-.07-3.34-.06-1.5,0-3,0-4.49.07-1,0-1.91.08-2.86.13-1.79.11-3.59.24-5.38.33-.93,0-1.86,0-2.79,0a4.59,4.59,0,0,1-.88-.18L64,94.34" transform="translate(0 -16.49)"/><path class="cls-1" d="M63.83,17.74c.45.34.89.7,1.37,1a.55.55,0,0,1,.29.62c-.15,1.74-.3,3.49-.34,5.24,0,2,.05,3.95,0,5.92,0,4.93-.05,9.85-.06,14.78,0,2.38,0,4.77.06,7.15,0,1.61,0,3.22,0,4.83,0,3.38.09,6.76.13,10.15,0,1.41,0,2.82,0,4.22,0,2.11.16,4.22.18,6.33,0,1.09-.12,2.18-.19,3.27,0,.2,0,.41,0,.61-.09,1.79-.17,3.59-.28,5.38a8.85,8.85,0,0,1-.2,1.09" transform="translate(0 -16.49)"/><path class="cls-1" d="M168.23,112.8H167c-2.82,0-5.63.13-8.45.39-2.56.23-5.13.29-7.69.43-.23,0-.45,0-.68,0" transform="translate(0 -16.49)"/><path class="cls-1" d="M121.31,68.6,121,53.27a19.89,19.89,0,0,0-4.65.59c.06,1.91.16,3.8.16,5.68,0,1.7-.14,3.4-.18,5.11,0,.68,0,1.36.07,2,.07,1,0,1.26-.83,2.57a3.69,3.69,0,0,0,.75.15c1.45,0,2.91-.11,4.36-.12.93,0,1.86.08,2.79.13.24,0,.47,0,.87,0l-.59-1a13.32,13.32,0,0,1-4.84.27,9,9,0,0,1-2.45-.77" transform="translate(0 -16.49)"/><path class="cls-1" d="M168.16,116.41h-18" transform="translate(0 -16.49)"/><path class="cls-1" d="M168.29,113.75h-2.18a76.36,76.36,0,0,0-9.94.62c-1.71.2-3.4.5-5.11.73a4.3,4.3,0,0,1-.88-.06" transform="translate(0 -16.49)"/><path class="cls-1" d="M168.23,115.25c-.23,0-.45-.06-.68-.07-2.18,0-4.36,0-6.54,0-1.75,0-3.5,0-5.24.07s-3.72.22-5.58.33" transform="translate(0 -16.49)"/><path class="cls-1" d="M150.18,121.31c0-.45.35-.27.54-.26,2.88.16,5.78-.09,8.65.38,1.26.21,2.54.24,3.81.36l4.33.41c.38-3.78,1.29-7.39.64-11.21-.73.06-1.45.14-2.18.17-1.47.06-3,.09-4.43.14-.27,0-.86.08-1.94.08" transform="translate(0 -16.49)"/><path class="cls-1" d="M147.86,24.2c-.11,2.61-.25,5.22-.33,7.83,0,1.06.06,2.13.05,3.2,0,2.25,0,4.49-.07,6.74-.07,2.84-.17,5.67-.27,8.51a1.58,1.58,0,0,1-.13.41" transform="translate(0 -16.49)"/><path class="cls-1" d="M186.2,97.88a7.34,7.34,0,0,0,.89.67,7.2,7.2,0,0,0,1,.39c0,.19,0,.35,0,.51,0,2.34-.09,4.68-.13,7,0,.79,0,1.59,0,2.38q-.12,4.63-.27,9.26c0,.39,0,.77-.07,1.16" transform="translate(0 -16.49)"/><path class="cls-1" d="M166.18,92a8,8,0,0,1-1.57.33c-3.13,0-6.26,0-9.4,0-1.88,0-3.77.06-5.65.14-1.54.06-3.09.23-4.63.26-4.13.08-8.26.1-12.39.15-.84,0-1.68.09-2.52.13" transform="translate(0 -16.49)"/><path class="cls-1" d="M170.68,86.44a7.46,7.46,0,0,1,4,1c1,.59,1.93,1.19,2.93,1.7,1.48.75,3,1.41,4.49,2.12l5.38,2.58c.22.11.45.18.68.27" transform="translate(0 -16.49)"/><path class="cls-1" d="M109.59,93.8c-.16,3.11-.35,6.22-.47,9.33-.07,1.72,0,3.45,0,5.17,0,1.88,0,3.77,0,5.65,0,2.54.13,5.08.2,7.63a6.2,6.2,0,0,0,.13.82" transform="translate(0 -16.49)"/><path class="cls-1" d="M48.24,93.25c.11,1.59.31,3.18.32,4.77,0,2.45-.1,4.9-.11,7.35,0,1.43.07,2.86.13,4.29.08,1.79.18,3.59.27,5.38,0,0,0,.09.07.14" transform="translate(0 -16.49)"/><path class="cls-1" d="M31.21,99.31A6.41,6.41,0,0,1,33.68,98c1.82-.84,3.71-1.54,5.51-2.42,1.48-.72,3-1.25,4.55-1.87a21.31,21.31,0,0,1,3-.83,7.46,7.46,0,0,1,1.51-.32c-.41,1-2,1.39-2.71,1.66-1.68.67-3.38,1.26-5.06,1.92-2,.79-4,1.63-6,2.44-.73.29-1.46.57-2.2.81a4.06,4.06,0,0,1-.93.08" transform="translate(0 -16.49)"/><path class="cls-1" d="M167.75,119c-3.09-.11-6.17-.3-9.26-.32-2.45,0-4.9.17-7.35.24a5.66,5.66,0,0,1-1-.13" transform="translate(0 -16.49)"/><path class="cls-1" d="M108.37,18.89c-1.5,0-3,.11-4.49.13-2.86,0-5.72,0-8.58.08-1.57,0-3.13.11-4.7.12-1.09,0-2.18,0-3.27-.06a6.11,6.11,0,0,0-.68.06" transform="translate(0 -16.49)"/><path class="cls-1" d="M147,24.2c-.09,2.18-.19,4.36-.27,6.54,0,1.13-.05,2.27-.07,3.4,0,2.75-.13,5.49-.12,8.24,0,2.34.12,4.68.19,7,0,.5,0,1,.07,1.5" transform="translate(0 -16.49)"/><path class="cls-1" d="M147,51.1a1,1,0,0,0,0,.34c.37.95.27,1.12-.75,1.23a46,46,0,0,1-7.56.09c-1.31-.08-2.63,0-3.95.05l-4,.07" transform="translate(0 -16.49)"/><path class="cls-1" d="M129.34,110.28c-1.11,0-2.23.14-3.34.12-1.84,0-3.68-.19-5.52-.18s-3.73.13-5.58.27c-1.25.09-2.5.31-3.75.46" transform="translate(0 -16.49)"/><path class="cls-1" d="M128.18,121.58a16.81,16.81,0,0,1-1.91-.08c-1.06.07-2.13.07-3.2.08a33.28,33.28,0,0,0-5.86.38,16.38,16.38,0,0,1-2.92,0h-2c0-1,0-1.86,0-2.72,0-1.5-.05-3-.06-4.49,0-.59,0-1.44,0-2" transform="translate(0 -16.49)"/><path class="cls-1" d="M146,49.94c-.09-.07-.18-.2-.27-.2-1.79.06-3.59.14-5.38.19-2.09.06-4.18.13-6.26.12-1.18,0-2.36-.17-3.54-.26" transform="translate(0 -16.49)"/><path class="cls-1" d="M128.18,121.58v-.88l-15.73.2" transform="translate(0 -16.49)"/><path class="cls-1" d="M147.66,92.64q0,1.77-.07,3.54c0,1,0,2-.07,2.93,0,2.07-.07,4.13-.15,6.2-.06,1.46-.2,2.91-.31,4.49l-15.62.21" transform="translate(0 -16.49)"/><path class="cls-1" d="M112.45,113.61c1.13-.07,2.27-.11,3.4-.21,1.64-.15,3.27-.38,4.9-.53,1-.09,2-.1,3-.14,1.23,0,2.45-.09,3.68-.15.12,0,.31-.12.32-.2a1.79,1.79,0,0,0-.07-.52c-1.93.09-3.75.16-5.56.26-.93,0-1.86.17-2.79.19-1.09,0-2.18-.09-3.27,0-1.27.05-2.54.21-3.81.33" transform="translate(0 -16.49)"/><path class="cls-1" d="M127.84,118.85c-3.38,0-6.76.05-10.15.06-1.45,0-2.91,0-4.36-.06-.29,0-.59,0-.89.06" transform="translate(0 -16.49)"/><path class="cls-1" d="M62.54,94.21c0,.48.06,1,.07,1.43,0,2.81.07,5.63.15,8.44,0,1.75.13,3.5.28,5.24.12,1.53.35,3,.53,4.56a1.74,1.74,0,0,1-.07.42l-.74.06c-3.81.34-7.62.27-11.44.27a1.19,1.19,0,0,0-.27.07" transform="translate(0 -16.49)"/><path class="cls-1" d="M170.61,91.89c-.13,2.52,0,5-.23,7.56-.25,3.26-.23,6.53-.3,9.8,0,.79.11,1.59.12,2.38a72.62,72.62,0,0,1-.75,9.87c-.12,1-.31,1.91-.47,2.86" transform="translate(0 -16.49)"/><path class="cls-1" d="M172.38,91.76c0,.3-.1.59-.13.89-.19,1.77-.43,3.54-.53,5.31-.08,1.4,0,2.81.05,4.22.09,2.36.25,4.72.32,7.08a30,30,0,0,1-.13,3.27c-.1,1.25-.2,2.51-.41,3.74-.38,2.21-.84,4.41-1.28,6.61-.1.51-.27,1-.4,1.5" transform="translate(0 -16.49)"/><path class="cls-1" d="M127.64,115.72c-2.75,0-5.49,0-8.24.08-2.25,0-4.49.17-6.74.26a1,1,0,0,1-.27-.06" transform="translate(0 -16.49)"/><path class="cls-1" d="M50.55,98.29a5.27,5.27,0,0,0-.06.61c0,2.38,0,4.77.07,7.15,0,2.61.08,5.22.22,7.83.1,2,.34,4,.53,5.92.12,1.18.27,2.36.4,3.54" transform="translate(0 -16.49)"/><path class="cls-1" d="M44.76,79c.13,1.29.23,2.59.34,3.88" transform="translate(0 -16.49)"/><path class="cls-1" d="M45.11,83a33.31,33.31,0,0,0-.2,5.45" transform="translate(0 -16.49)"/><path class="cls-1" d="M84.81,96.39c0,.3.07.59.06.89,0,2.93-.14,5.86-.11,8.78,0,2.32.21,4.63.32,6.95.1,2.07.15,4.13.28,6.2.08,1.25.28,2.5.39,3.75" transform="translate(0 -16.49)"/><path class="cls-1" d="M146,123.22a2.15,2.15,0,0,1-.34.07c-1.48,0-3,.11-4.43.14q-4.32.08-8.65.13a4,4,0,0,1-.89-.19" transform="translate(0 -16.49)"/><path class="cls-1" d="M64.31,98.16a4.57,4.57,0,0,0-.06.61c.06,2.43.11,4.86.21,7.29.08,2,.24,4,.33,6.06,0,.91,0,1.82,0,2.72.06,1.34.17,2.68.26,4,0,.14,0,.27,0,.41A7.56,7.56,0,0,0,65.6,123" transform="translate(0 -16.49)"/><path class="cls-1" d="M127.44,117.63c-2.77,0-5.54,0-8.31.08-1.86,0-3.72.17-5.58.26-.16,0-.93-.17-1.09-.19" transform="translate(0 -16.49)"/><path class="cls-1" d="M132.27,18.82c-.24-.59-.81-.41-1.23-.46-.81-.09-1.63-.05-2.45-.09-1.32-.06-2.63-.17-3.95-.19-.93,0-1.87.16-2.79.1a20.57,20.57,0,0,0-2.86.28c-1,.08-2.09.06-3.13.08-2.09,0-4.18,0-6.26.08a6.79,6.79,0,0,0-1.09.2" transform="translate(0 -16.49)"/><path class="cls-1" d="M127.78,116.47c-1.73,0-3.45.08-5.18.14-1.2,0-2.41.15-3.61.19-1.88.06-3.77.09-5.65.14-.16,0-.9,0-1.06,0" transform="translate(0 -16.49)"/><path class="cls-1" d="M127.57,113.82c-.86,0-1.73-.13-2.59-.13-2,0-4,0-6,.14-1.59.08-3.18.27-4.77.39-.4,0-1.56.58-2,.55" transform="translate(0 -16.49)"/><path class="cls-1" d="M127.5,114.7c-5,.15-10.09.11-15.12.54" transform="translate(0 -16.49)"/><path class="cls-1" d="M55.8,73.3c0-.43-.12-.86-.13-1.29q-.08-3.68-.14-7.35c0-.45,0-.91.08-1.56a17.09,17.09,0,0,0-2.32.9,5.73,5.73,0,0,1-2.06.73" transform="translate(0 -16.49)"/><path class="cls-1" d="M107.69,35.1a2.57,2.57,0,0,0,.26-.75c0-1.38,0-2.77,0-4.15,0-1.61.12-3.22.18-5-.65,0-1.24,0-1.82.09-.34,0-.68.13-1,.12-1,0-2-.08-2.93-.13-.25,0-.5-.08-.89-.15a3.15,3.15,0,0,0-.19.7c0,.88-.06,1.77-.08,2.66,0,1.32-.06,2.63-.06,3.95,0,.68,0,1.36.06,2a.87.87,0,0,0,.89.87c.72.07,1.45,0,2.31,0-.1-3.34,0-6.61-.27-9.87" transform="translate(0 -16.49)"/><path class="cls-1" d="M147,54.85a3.73,3.73,0,0,0-.13.68c0,1.59,0,3.18,0,4.77-.09,3.93-.26,7.85-.32,11.78,0,2.52.09,5,.12,7.56,0,1.13,0,2.27-.06,3.4s0,2.36,0,3.54" transform="translate(0 -16.49)"/><path class="cls-1" d="M149.23,92.64c0,1.91,0,3.81,0,5.72q-.06,3.68-.21,7.35c0,1.07-.14,2.14-.27,3.2-.2,1.71-.48,3.4-.66,5.11-.1.9,0,1.82-.09,2.72,0,.75-.24,1.5-.25,2.25,0,1.36.08,2.72.12,4.09" transform="translate(0 -16.49)"/><path class="cls-1" d="M171.9,96.93c.57.18,1.14.34,1.7.55,1.57.6,3.12,1.25,4.7,1.82.88.32,1.82.48,2.72.77,1.21.38,2.41.81,3.61,1.22l.68.21" transform="translate(0 -16.49)"/><path class="cls-1" d="M186.13,103.26c-.58.26-1-.21-1.49-.35-1.1-.32-2.19-.69-3.27-1.08-2.34-.85-4.67-1.75-7-2.57a21.54,21.54,0,0,0-2.45-.56" transform="translate(0 -16.49)"/><path class="cls-1" d="M86.1,46.54c0,.7,0,1.41,0,2.11,0,1.79-.05,3.59-.06,5.38s0,3.54,0,5.31c-.08,2.2-.26,4.4-.39,6.61-.05.88-.09,1.77-.14,2.66-.06,1.07-.17,2.13-.2,3.2,0,2.16-.11,4.31-.05,6.47,0,1.07.31,2.13.45,3.2.07.52,0,1,.08,1.56a8.43,8.43,0,0,0,.15.84,1.39,1.39,0,0,0,0,1.48" transform="translate(0 -16.49)"/><path class="cls-1" d="M115.45,25.16c-.73,0-1.45,0-2.18.08a7,7,0,0,0-1,.23c.08,3,.07,5.82.28,8.68a4.18,4.18,0,0,1-.53,2.33c2.76.89,5.4.23,8-.17a50.51,50.51,0,0,0,.16-5.83c-.15-1.91.33-3.84-.25-5.8a11.4,11.4,0,0,1-1.67.4c-.9.08-1.81.06-2.72.08" transform="translate(0 -16.49)"/><path class="cls-1" d="M108.5,97.82l-9.81.34c-2.45.08-4.9.13-7.35.21-.93,0-1.86.15-2.79.19a9.29,9.29,0,0,1-1.29-.13" transform="translate(0 -16.49)"/><path class="cls-1" d="M60.29,45.79,60.76,47c-.34.23-.66.48-1,.67a52.65,52.65,0,0,1-7.41,3.31,7.43,7.43,0,0,1-2.67.71,1,1,0,0,1-.2,0,1.43,1.43,0,0,1,1-2c1.13-.4,2.23-.89,3.34-1.36.17-.07.28-.26.37-.34l-.4-11" transform="translate(0 -16.49)"/><path class="cls-1" d="M111.36,93.19c-.09,1.73-.24,3.45-.26,5.18-.06,4,0,8.08-.09,12.12,0,1.54-.2,3.09-.25,4.63a7.14,7.14,0,0,0,.25,3,1.6,1.6,0,0,1,.07.54q.07,2.28.14,4.56" transform="translate(0 -16.49)"/><path class="cls-1" d="M166.93,120.36c-2.13-.14-4.27-.28-6.4-.4-.59,0-1.18,0-1.77,0-2.38,0-4.77.1-7.15.13a14.74,14.74,0,0,1-1.5-.13" transform="translate(0 -16.49)"/><path class="cls-1" d="M61.18,71.12l1.06,1.09-.05.25c-1,.39-1.93.85-2.92,1.16-1.3.41-2.63.7-3.94,1a21.76,21.76,0,0,1-2.45.59,19.33,19.33,0,0,1-2.43,0c.16-.37.26-.64.4-.88a2.24,2.24,0,0,0,.29-1.3C51,71.37,51,69.65,51,67.92c0-1.2,0-2.41,0-3.61,0-1,0-1.91,0-2.86a20.32,20.32,0,0,0-.28-2.31c0-.15-.26-.28-.39-.41" transform="translate(0 -16.49)"/><path class="cls-1" d="M171,98.43c-2,0-4,0-6.06-.08-1.86-.05-3.72-.2-5.58-.25-.86,0-1.72.09-2.59.12s-1.45,0-2.18,0c-1.77.06-3.54.13-5.31.2" transform="translate(0 -16.49)"/><path class="cls-1" d="M123.08,35.58c.41,0,.82,0,1.23,0a6.41,6.41,0,0,0,3.7-.5,15.1,15.1,0,0,1-.15-1.82c.06-1.7.18-3.4.25-5.11,0-.84,0-1.68,0-2.52a.68.68,0,0,0-.46-.46,5.38,5.38,0,0,0-2.53,0,4.36,4.36,0,0,1-1.42,0c-.23,0-.45-.05-.78-.09.22,3.61-.33,7.13,0,10.65l.14,0-.47,1a11,11,0,0,0,5.68-.66" transform="translate(0 -16.49)"/><path class="cls-1" d="M112.45,119.68a4.79,4.79,0,0,0,.54.07l8.92.07h5.38c.25,0,.5,0,.8,0-.11-1.26-.24-2.48-.32-3.71-.06-.81-.05-1.63-.07-2.45,0-.34,0-.68,0-1" transform="translate(0 -16.49)"/><path class="cls-1" d="M50.9,112.87c3.06,0,6.13.1,9.19.13,1,0,2.09,0,3.13-.06" transform="translate(0 -16.49)"/><path class="cls-1" d="M145.21,112.59l-5,.34c-.82.06-1.63.15-2.45.2l-4.7.28" transform="translate(0 -16.49)"/><path class="cls-1" d="M145.21,114.09l-9.12.48-3,.14" transform="translate(0 -16.49)"/><path class="cls-1" d="M145.21,116.61l-5,.07c-.23,0-.45.06-.68.06l-5.72.14c-.2,0-.41,0-.61.07" transform="translate(0 -16.49)"/><path class="cls-1" d="M144.87,111.78c-.47-.41-1-.21-1.5-.15a32.57,32.57,0,0,1-3.61.33c-1.54,0-3.09-.13-4.63-.18-.75,0-1.5,0-2.25,0l.2,9c1,.09,11,.19,12,.28" transform="translate(0 -16.49)"/><path class="cls-1" d="M145,120c-1.71,0-3.43,0-5.14,0s-3.54-.23-5.31-.32c-.5,0-1,0-1.5.06" transform="translate(0 -16.49)"/><path class="cls-1" d="M60.91,33.74c0,1.18-.08,2.36-.14,3.54s-.15,2.36-.2,3.54c-.06,1.41-.09,2.81-.14,4.22a4,4,0,0,1-.12.62l-4.21,1.52a105.45,105.45,0,0,1-.24-11.87L61,33.6c0-.2.08-.47.08-.75q.08-3.06.13-6.13a2,2,0,0,0-.2-.54c-1.92,1-3.76,2-5.66,2.91s-3.65,1.55-5.58,2.36c0,1.13,0,2.22,0,3.3s.14,2,.12,3.06c0,1.75-.21,3.5-.25,5.24s0,3.72,0,5.58c0,.39,0,.77.07,1.16" transform="translate(0 -16.49)"/><path class="cls-1" d="M170.54,96.8c-1,0-1.91-.06-2.86-.07s-2.09,0-3.13,0l-5.45.07-3.61.07c-1.34,0-2.68.12-4,.12-.73,0-1.45-.12-2.18-.19" transform="translate(0 -16.49)"/><path class="cls-1" d="M145.14,115.18c-2.09,0-4.18,0-6.26.16-1.69.11-3.36.43-5,.65a6.18,6.18,0,0,1-.86,0" transform="translate(0 -16.49)"/><path class="cls-1" d="M86.92,21.41l-1,.27" transform="translate(0 -16.49)"/><path class="cls-1" d="M81.47,21.65,77,21.34l-3.2-.2" transform="translate(0 -16.49)"/><path class="cls-1" d="M71.8,21.48a13.2,13.2,0,0,0-1.7-.26c-.51,0-.9-.11-1.09-.63" transform="translate(0 -16.49)"/><path class="cls-1" d="M73.37,21.68a1.5,1.5,0,0,0,.41.2c2,.28,4,.62,6.06.8,1.35.12,2.72,0,4.08,0,1,0,2,0,2.93-.07" transform="translate(0 -16.49)"/><path class="cls-1" d="M163.66,41.91c0-.34,0-.68,0-1,0-2.18.1-4.36.13-6.54,0-.61-.06-1.12-.8-1.39a17,17,0,0,1-2.19-1.13" transform="translate(0 -16.49)"/><path class="cls-1" d="M155.08,20.66c.21,2.31.81,4.6.48,6.9l-6,2.14v2.13c0,3,0,6,0,9a12.79,12.79,0,0,0,.16,1.43" transform="translate(0 -16.49)"/><path class="cls-1" d="M85.9,50.42l-9.19-.34c-1,0-2.09-.06-3.13-.14s-1.82-.22-2.72-.33a9.9,9.9,0,0,0-3.34.18,14.45,14.45,0,0,1-2.24.16" transform="translate(0 -16.49)"/><path class="cls-1" d="M130.64,23.11c-.07.66-.14,1.32-.2,2a92.33,92.33,0,0,0-.47,9.67,3.08,3.08,0,0,0,.13.61" transform="translate(0 -16.49)"/><path class="cls-1" d="M99.79,57.78l-1.84.14-1.77.1-.39-3.81c1.55.06,3,.14,4.41.16s2.86,0,4.43,0c0,.93.05,2,0,3-.12,2-.32,4.09-.45,6.13,0,.45.11.91.12,1.36,0,.7,0,1.41,0,2.11a4.13,4.13,0,0,0,.47,2.67l-8.93.5c.18-.4.26-.6.36-.79s.26-.37.39-.56c-.06-.78-.15-1.58-.18-2.37,0-1.22-.05-2.45-.07-3.68q0-2.11-.07-4.22a3.17,3.17,0,0,1,.06-.48" transform="translate(0 -16.49)"/><path class="cls-1" d="M159.58,70.65a11.7,11.7,0,0,1,2.46.73,40.6,40.6,0,0,0,4,1.57,3.73,3.73,0,0,0,1.22,0,10.31,10.31,0,0,1-.51-2.38c0-2.27.24-4.54.38-6.81.07-1.16.12-2.32.21-3.47,0-.6.16-1.19.25-1.8a16.76,16.76,0,0,1-2.69-1.09A35.81,35.81,0,0,1,162,55.19a10.65,10.65,0,0,0-1.08-.64l-.17.12V60l3.06,1.75c-.24,2.68-.47,5.29-.71,7.9a2.71,2.71,0,0,1-.13.48" transform="translate(0 -16.49)"/><path class="cls-1" d="M67.92,28a14.3,14.3,0,0,1,.2,1.5c0,1.57.08,3.13.07,4.7,0,1.23-.11,2.45-.12,3.68,0,1.79,0,3.59,0,5.38,0,.48,0,1-.07,1.47,1.34.43,2.62.83,3.89,1.27a3.31,3.31,0,0,1,.75.53" transform="translate(0 -16.49)"/><path class="cls-1" d="M145.07,118.79c-1.36,0-2.72-.09-4.09-.06s-3,.18-4.49.26c-.88,0-2.52,0-3.4.07" transform="translate(0 -16.49)"/><path class="cls-1" d="M61.65,98.09l-4.9.07H50.52V93.28c-.78-.06-1.46-.15-2.15-.15s-1.45.09-2.18.12a2.57,2.57,0,0,1-.61-.13" transform="translate(0 -16.49)"/><path class="cls-1" d="M65.33,51.85c1.13,0,2.27.07,3.4,0,1.68-.12,3.36-.37,5-.52a9.8,9.8,0,0,1,1.57.06c.82.06,1.63.14,2.45.2,1.77.12,3.54.26,5.31.33.79,0,1.59-.08,2.38-.12" transform="translate(0 -16.49)"/><path class="cls-1" d="M188.11,98.84l.16-.47c-.65-.23-1.23-.71-2-.55" transform="translate(0 -16.49)"/><path class="cls-1" d="M185.59,97.48l-1.36-.61" transform="translate(0 -16.49)"/><path class="cls-1" d="M181.64,95.37a22.89,22.89,0,0,0-2.18-1.14c-1.87-.75-3.76-1.42-5.65-2.12-.59-.22-1.18-.41-1.77-.61" transform="translate(0 -16.49)"/><path class="cls-1" d="M171.22,91.62a2.47,2.47,0,0,1-.61.2c-1.27.06-2.54.12-3.81.14-.5,0-1-.13-1.5-.12-1.7,0-3.41.14-5.11.11s-3.13-.21-4.7-.33a.43.43,0,0,1-.14-.07" transform="translate(0 -16.49)"/><path class="cls-1" d="M147.46,97.41c-1.7,0-3.41.15-5.11.12-3.46-.05-6.9.14-10.35.35" transform="translate(0 -16.49)"/><path class="cls-1" d="M87.87,28.49c-.11.14-.32.27-.33.41-.11,1.66-.19,3.31-.29,5a.88.88,0,0,1-.07.34,8,8,0,0,0-.46,3.2c-.18,2.52-.28,5-.43,7.56,0,.48-.13,1-.21,1.48a12.1,12.1,0,0,1-4,0c-.56-.1-1.13-.09-1.7-.15-.25,0-.5-.09-.75-.13" transform="translate(0 -16.49)"/><path class="cls-1" d="M155.56,27.75c0,1.2,0,2.41,0,3.61,0,.54.06,1.09.06,1.63q0,2.69,0,5.38a5.63,5.63,0,0,1-.14.89c-.1,0-.15,0-.19,0l-3.88,2.18c-.43.24-.85.53-1.3.74-.72.35-.79.45-.66,1.46A47.91,47.91,0,0,0,156,40.4l-.52-1.08" transform="translate(0 -16.49)"/><path class="cls-1" d="M168.29,112c-1.77-.09-3.54-.19-5.31-.27-.79,0-1.59,0-2.18,0-1.13.1-2.06.21-3,.27-2.27.13-4.54.24-6.81.34a4.73,4.73,0,0,1-.68-.06" transform="translate(0 -16.49)"/><path class="cls-1" d="M96.38,25.29c0,.5.13,1,.13,1.5,0,2.93,0,5.86,0,8.78A13.78,13.78,0,0,0,96.69,37c-2.45.06-4.8.62-7.18-.36l.54-.84" transform="translate(0 -16.49)"/><path class="cls-1" d="M115.45,25.23c.07.54.15,1.09.2,1.63a14.39,14.39,0,0,0,.15,1.77c.4,1.74.09,3.5.19,5.25,0,.54,0,1.09,0,1.63" transform="translate(0 -16.49)"/><path class="cls-1" d="M173.67,115.25l4.15,1.16,4.77,1.29a5.83,5.83,0,0,0,.61.09v-3.86a54.28,54.28,0,0,1-9.7-2.11v1.25c.76.19,1.59.41,2.42.6,1.68.39,3.36.78,5,1.16.72.16,1.45.28,2.18.41" transform="translate(0 -16.49)"/><path class="cls-1" d="M154.88,69.15q.07-1.36.14-2.72c.11-2.34.26-4.67.33-7,.05-1.75,0-3.5,0-5.31-2.16.34-3.74,1.77-5.72,2.49,0,1.25,0,2.55,0,3.84,0,2.22-.14,4.45-.2,6.67,0,1.29-.05,2.59-.06,3.88a2.32,2.32,0,0,0,.14.52A16.33,16.33,0,0,0,155,69.08l.69,1.52c-1,.4-1.82.79-2.71,1.12s-1.91.62-2.85,1c-.45.17-.8.21-1.1-.25l.55-.92" transform="translate(0 -16.49)"/><path class="cls-1" d="M167,63.22l-1.09-.55-1-.51c-.14.61-.28,1.06-.34,1.53-.2,1.63-.35,3.27-.56,4.9-.08.66-.26,1.32-.4,2" transform="translate(0 -16.49)"/><path class="cls-1" d="M100.13,54.51a4.77,4.77,0,0,1,.2.68,69.82,69.82,0,0,1,.3,7.49c.07,2.09.3,4.18.46,6.27" transform="translate(0 -16.49)"/><path class="cls-1" d="M99.79,54.51c0,1,.05,2,.07,2.93,0,1.77,0,3.54.08,5.31.07,1.61.26,3.22.39,4.84,0,.43,0,.86.07,1.29" transform="translate(0 -16.49)"/><path class="cls-1" d="M73.43,34.21a16.5,16.5,0,0,1,0,3.68c0,2.45-.15,4.9-.26,7.35A7.38,7.38,0,0,1,73,46.47" transform="translate(0 -16.49)"/><path class="cls-1" d="M51,58.39c.39-.09.78-.16,1.16-.28q1.33-.42,2.66-.88c.53-.18,1-.43,1.57-.61,1.31-.44,2.63-.87,3.95-1.3a1.85,1.85,0,0,0,.33-.24A4.44,4.44,0,0,1,61,56.14a16.38,16.38,0,0,1,0,2.79c-.28,2.25,0,4.5-.18,6.74a2.17,2.17,0,0,0,.06.48" transform="translate(0 -16.49)"/><path class="cls-1" d="M60.84,67.45c-.09,1-.2,2-.26,3a4.81,4.81,0,0,0,.13,1" transform="translate(0 -16.49)"/><path class="cls-1" d="M111.36,96.25c2.84,0,5.68.08,8.51.05,1.84,0,3.68-.18,5.52-.25.43,0,.86,0,1.29.06l4.15.2" transform="translate(0 -16.49)"/><path class="cls-1" d="M79.43,29.72c0,.54-.13,1.09-.13,1.63,0,.82.12,1.63.12,2.45,0,1.38-.07,2.77-.05,4.15,0,2.61.15,5.22.17,7.83a4.06,4.06,0,0,1-.47,1.28,3.13,3.13,0,0,0,1.72.69,9.74,9.74,0,0,0,3.2-.12c.65-.06,1.32,0,2,0" transform="translate(0 -16.49)"/><path class="cls-1" d="M173.67,114.16a36.55,36.55,0,0,1,7.36,1.76c.68.22,1.4.33,2.11.49" transform="translate(0 -16.49)"/><path class="cls-1" d="M131.11,24.07c-.14,2.18-.28,4.36-.41,6.54a23.86,23.86,0,0,1-.25,3.87,43.73,43.73,0,0,0-.37,4.84" transform="translate(0 -16.49)"/><path class="cls-1" d="M130.06,40.48l0,.48" transform="translate(0 -16.49)"/><path class="cls-1" d="M130.09,39.32c.07.93.19,5.34.28,6.26a6.8,6.8,0,0,0,.2.89" transform="translate(0 -16.49)"/><path class="cls-1" d="M182.8,122c.17-.36,0-.48-.34-.55-1.57-.36-3.13-.75-4.7-1.08s-2.95-.55-4.42-.82" transform="translate(0 -16.49)"/><path class="cls-1" d="M173.33,118c2.18.59,4.36,1.19,6.54,1.77.95.25,1.91.46,2.86.68" transform="translate(0 -16.49)"/><path class="cls-1" d="M182.9,119.34c-2.37-.66-4.74-1.32-7.12-2-.74-.2-1.49-.35-2.33-.55,0-.53.07-1.12.08-1.71s0-1.32,0-2" transform="translate(0 -16.49)"/><path class="cls-1" d="M160.26,111.44c-.64,0-1.27-.11-1.91-.13q-3.13-.09-6.26-.13c-.39,0-1.52-.12-1.91-.08" transform="translate(0 -16.49)"/><path class="cls-1" d="M150.59,117.56c.64,0,1.27,0,1.91,0,1.32,0,2.63-.12,3.95-.13s2.77,0,4.15.06c1,0,1.91,0,2.86,0,1.52.06,3,.17,4.56.27" transform="translate(0 -16.49)"/><path class="cls-1" d="M172.45,92.37c1.38.59,2.75,1.23,4.16,1.76s3,1,4.49,1.44c.19.06,2.93,1.3,3.13,1.3" transform="translate(0 -16.49)"/><path class="cls-1" d="M134.59,58.93c0,.77,0,1.54,0,2.32,0,1-.05,2-.06,3s0,2,0,3,0,1.82,0,2.72a3,3,0,0,1-.64,2.41,2,2,0,0,0,1.92.7,9.2,9.2,0,0,1,3.07-.28,11.47,11.47,0,0,0,2.51,0,2.35,2.35,0,0,0,.64-.25l-.71-.83" transform="translate(0 -16.49)"/><path class="cls-1" d="M128.8,98.09a61.56,61.56,0,0,1-6.95.28c-1.7,0-3.41,0-5.11,0s-3.63-.13-5.45-.2" transform="translate(0 -16.49)"/><path class="cls-1" d="M54.5,29.65q-.07,1.46-.14,2.93a10.9,10.9,0,0,0-.06,1.23A1.11,1.11,0,0,1,53.55,35c-1.17.42-2.36.78-3.54,1.17" transform="translate(0 -16.49)"/><path class="cls-1" d="M104.83,26c.09.16.26.32.26.48,0,.8-.15,1.59-.11,2.38.1,2,.26,4.09.4,6.13" transform="translate(0 -16.49)"/><path class="cls-1" d="M160.8,30.67c0,.54-.13,1.09-.13,1.63,0,2.68.08,5.36.13,8a1.22,1.22,0,0,0,.1.31l-.6,1.06a3.06,3.06,0,0,0,.64.59,5.38,5.38,0,0,0,1.22.42,10.51,10.51,0,0,1,3.13,1.5,4.16,4.16,0,0,0,1,.47,3.56,3.56,0,0,0,.9,0l-.43-1.23" transform="translate(0 -16.49)"/><path class="cls-1" d="M68.53,58c0,1.45,0,2.91,0,4.36s0,2.72.07,4.09c0,1.18,0,2.36.08,3.54,0,.52.49.82.94,1,1.06.45,2.13.87,3.2,1.3" transform="translate(0 -16.49)"/><path class="cls-1" d="M68.26,20.25l-3.47-2.93A1.88,1.88,0,0,0,62.88,17c-2,.62-3.95,1.18-5.92,1.79a5.1,5.1,0,0,0-.89.41q-1.78.94-3.54,1.91c-.07,0-.09.18-.14.27" transform="translate(0 -16.49)"/><path class="cls-1" d="M50.69,22.09a2.74,2.74,0,0,0-2,1" transform="translate(0 -16.49)"/><path class="cls-1" d="M63.49,114.36c.07,1,.13,2,.21,3.06s.17,2,.27,3.06c.08.86.18,1.73.27,2.59" transform="translate(0 -16.49)"/><path class="cls-1" d="M62.88,17.67c-1.5.48-3,.9-4.49,1.45-1.19.44-2.32,1-3.48,1.55-.63.27-1.26.52-1.91.74a2,2,0,0,1-.61,0" transform="translate(0 -16.49)"/><path class="cls-1" d="M147.46,96.32H132.07" transform="translate(0 -16.49)"/><path class="cls-1" d="M160.73,60.16c0,1-.09,2-.14,2.93-.09,1.82-.18,3.63-.27,5.45a1,1,0,0,0,.09.29c.6.32,1.25.65,1.88,1,.85.48,1.66,1,2.53,1.48a2.5,2.5,0,0,0,2,.36" transform="translate(0 -16.49)"/><path class="cls-1" d="M79.63,58.25c.09,1.36.19,2.72.27,4.09,0,.45,0,.91,0,1.36,0,1.5-.09,3-.05,4.49,0,1.16.24,2.31.31,3.47a1.91,1.91,0,0,1-.27.95,10.34,10.34,0,0,1-.79,1.1c.27.13.47.33.67.32,1-.06,1.91-.18,2.86-.25s1.63-.09,2.45-.14" transform="translate(0 -16.49)"/><path class="cls-1" d="M92.5,29.38c-.54-.07-1.09-.15-1.63-.2a4.61,4.61,0,0,0-.78.07v6.41a4,4,0,0,0,2.76,0" transform="translate(0 -16.49)"/><path class="cls-1" d="M104.49,35.17a14.94,14.94,0,0,0,1.84-.08c1.21-.2,1.21-.23,1.63.83a2.27,2.27,0,0,1,.08.33c-.57.07-1.14.13-1.71.22a32.67,32.67,0,0,1-3.27.51c-.79,0-1.66.31-2.46-.33l.62-1.68" transform="translate(0 -16.49)"/><path class="cls-1" d="M155.36,23.93a2.28,2.28,0,0,0-.47.14L149.58,27l.13,2.64" transform="translate(0 -16.49)"/><path class="cls-1" d="M48.65,23a12.47,12.47,0,0,0-1.83.56c-2.17,1-4.32,2.12-6.48,3.19" transform="translate(0 -16.49)"/><path class="cls-1" d="M185.79,115.59a2.45,2.45,0,0,1,.2.61c.06,1.34.15,2.68.13,4,0,1.07-.16,2.13-.27,3.2,0,.12-.21.23-.33.34" transform="translate(0 -16.49)"/><path class="cls-1" d="M185.52,115.59a2.57,2.57,0,0,0-.13.54c0,1.66,0,3.31-.08,5,0,.66-.06,1.32-.06,2a4,4,0,0,0,.19.81l-.27.62" transform="translate(0 -16.49)"/><path class="cls-1" d="M123.49,68.4c.18-1.79.4-3.58.53-5.38.11-1.45.1-2.9.15-4.36a14,14,0,0,1,.15-2c.22-1.18-.43-2.21-.39-3.34H121" transform="translate(0 -16.49)"/><path class="cls-1" d="M56.41,56.69c0,.7,0,1.41,0,2.11a10,10,0,0,0,0,1.36c0,.35.22.66.73.49,1.06-.37,2.13-.69,3.2-1a3,3,0,0,1,.41-.07" transform="translate(0 -16.49)"/><path class="cls-1" d="M120.08,53.35c.11,1.2.28,2.4.33,3.61.06,1.47,0,3,0,4.43s-.17,2.86-.18,4.29c0,1,.12,2,.19,2.93" transform="translate(0 -16.49)"/><path class="cls-1" d="M60.7,60.91,57.3,62.4c-.05.71-.1,1.34-.14,2-.16,2.54-.33,5.08-.47,7.63a5,5,0,0,0,.13,1" transform="translate(0 -16.49)"/><path class="cls-1" d="M167.2,35.51l-1.86-.88c-.08.1-.28.24-.3.41-.08.72-.11,1.45-.15,2.18-.07,1.57-.13,3.13-.21,4.7a2.23,2.23,0,0,1-.13.48" transform="translate(0 -16.49)"/><path class="cls-1" d="M48.72,23.18a6.71,6.71,0,0,1-2.38,1.43c-1.54.73-3.09,1.45-4.63,2.19a2.81,2.81,0,0,0-.55.47" transform="translate(0 -16.49)"/><path class="cls-1" d="M136.9,46.27a2.6,2.6,0,0,1,1.43,1.55,5.36,5.36,0,0,0-.89-.18,6.52,6.52,0,0,0-1.43.07,20.07,20.07,0,0,1-4.84.19,4.11,4.11,0,0,1-.78-.19V46.59a3.58,3.58,0,0,1,1.74-.08c1.27.07,2.54,0,3.81,0a1.46,1.46,0,0,1,.35.08l.11.17.31-.65.25.12c0-2.5-.05-5,0-7.49.06-2.29.26-4.59.39-6.88,0-.41,0-.82,0-1.23" transform="translate(0 -16.49)"/><path class="cls-1" d="M87.12,93.25,87.05,112" transform="translate(0 -16.49)"/><path class="cls-1" d="M86.58,29.79c-2.22.37-4.4-.22-6.61-.2h-.41" transform="translate(0 -16.49)"/><path class="cls-1" d="M68.19,54.17l3.47,1.7c.12.06.22.18.34.2,1.16.2,1.19,1.12,1.22,2,.09,3.43.14,6.85.21,10.28,0,.91.06,1.82.05,2.72a2.15,2.15,0,0,1-.26.68L73,71.6" transform="translate(0 -16.49)"/><path class="cls-1" d="M161,40.62l5.46,2.9a.65.65,0,0,0,.55-.72c0-1.2.13-2.41.18-3.61,0-1,0-1.91.07-2.86.07-1.75.17-3.49.26-5.39L165,29" transform="translate(0 -16.49)"/><path class="cls-1" d="M172.24,109.46l13.21,3.68a4.46,4.46,0,0,0,.34,2.35" transform="translate(0 -16.49)"/><path class="cls-1" d="M86.44,39.73a8.17,8.17,0,0,0-2-.18,11.92,11.92,0,0,1-3.41-.09c-.52-.07-1-.09-1.57-.14" transform="translate(0 -16.49)"/><path class="cls-1" d="M134.59,71.4a3.33,3.33,0,0,0,1.57.35c1.18,0,2.36.19,3.54.25a3.33,3.33,0,0,0,1.22-.15.82.82,0,0,0,.46-.59c0-1.61,0-3.22,0-4.83V59.26c-.65-.53-1.29-.25-1.91-.19l-4.77.47" transform="translate(0 -16.49)"/><path class="cls-1" d="M86.31,40.55c-1.16-.09-2.31-.22-3.47-.26s-2.22,0-3.34,0" transform="translate(0 -16.49)"/><path class="cls-1" d="M185.52,103.4a43.76,43.76,0,0,0-.08,6.2c0,1.13,0,2.27-.06,3.4" transform="translate(0 -16.49)"/><path class="cls-1" d="M183.27,122.47l-2.66-.54c-.31-.06-.63-.11-1-.14a50.74,50.74,0,0,1-5-1.09c-.43-.08-.86-.14-1.29-.21" transform="translate(0 -16.49)"/><path class="cls-1" d="M136.29,40.41c0-.09-.08-.25-.14-.26-.36,0-.72-.07-1.09-.08l-4.9-.14" transform="translate(0 -16.49)"/><path class="cls-1" d="M137.24,30.67c-.75,0-1.5,0-2.25,0a8.58,8.58,0,0,1-2.93-.07,8.25,8.25,0,0,0-1.22-.15" transform="translate(0 -16.49)"/><path class="cls-1" d="M127.44,29.11h-1.23v6.4" transform="translate(0 -16.49)"/><path class="cls-1" d="M68.12,44.91l-.64,1.2a2.31,2.31,0,0,0,1.6.57c1,0,2,0,3.06,0l1.16,0" transform="translate(0 -16.49)"/><path class="cls-1" d="M85.9,57.84,80.45,58c-.36,0-.73.09-1.09.13" transform="translate(0 -16.49)"/><path class="cls-1" d="M116.27,25.23a27.46,27.46,0,0,0,.29,2.79,51.07,51.07,0,0,1,.39,6.74c0,.25,0,.5.07.75" transform="translate(0 -16.49)"/><path class="cls-1" d="M140.78,63.16c-1.18,0-2.36.1-3.54.13-.86,0-1.73,0-2.59,0" transform="translate(0 -16.49)"/><path class="cls-1" d="M155.49,28.7a14.19,14.19,0,0,0-3.41,1.09l-2.38,1" transform="translate(0 -16.49)"/><path class="cls-1" d="M68.26,31.29c.77.41,1.56.79,2.31,1.23s1.45,1,2.19,1.41a4.45,4.45,0,0,0,.83.29l.15-3.17c-.67-.44-1.43-1-2.22-1.46s-1.66-1-2.52-1.42a3.12,3.12,0,0,0-.95-.15" transform="translate(0 -16.49)"/><path class="cls-1" d="M85.76,62.34c-1.09,0-2.18,0-3.27.07-.8,0-1.59.09-2.38.13" transform="translate(0 -16.49)"/><path class="cls-1" d="M155.22,58.93c-1.18.39-2.36.79-3.54,1.15-.63.19-1.27.32-1.9.48" transform="translate(0 -16.49)"/><path class="cls-1" d="M42.59,28.83c.39-.26.59.12.81.28.52.37,1,.84,1.51,1.2a.53.53,0,0,1,.2.83" transform="translate(0 -16.49)"/><path class="cls-1" d="M44.94,32.31l0,.61" transform="translate(0 -16.49)"/><path class="cls-1" d="M155.22,58l-4.63,1.57-.82.27" transform="translate(0 -16.49)"/><path class="cls-1" d="M86.31,63.22l-5.72.34" transform="translate(0 -16.49)"/><path class="cls-1" d="M62.47,96.8c-3.38,0-6.76,0-10.15,0-.57,0-1.13-.08-1.7-.13" transform="translate(0 -16.49)"/><path class="cls-1" d="M125.46,28c0,.36-.07.73-.06,1.09,0,2.13.09,4.27.13,6.4" transform="translate(0 -16.49)"/><path class="cls-1" d="M141.19,62.34h-6.4" transform="translate(0 -16.49)"/><path class="cls-1" d="M164.89,57.5l-.47,3.31,2,.7" transform="translate(0 -16.49)"/><path class="cls-1" d="M73.43,35.44c-1.36-.75-2.72-1.51-4.09-2.24a9.8,9.8,0,0,0-1-.41" transform="translate(0 -16.49)"/><path class="cls-1" d="M68.84,70.44,68,71c.4,1,1.27,1.21,2.13,1.36s2,.33,2.93.48a1.07,1.07,0,0,0,.34-.06" transform="translate(0 -16.49)"/><path class="cls-1" d="M55.53,29.18l.13,4.36a2.61,2.61,0,0,0,1.84-.28c.85-.37,1.68-.77,2.52-1.15" transform="translate(0 -16.49)"/><path class="cls-1" d="M48.78,115.45q.1,1.67.21,3.34c0,.25,0,3.36.07,3.61" transform="translate(0 -16.49)"/><path class="cls-1" d="M61,67.45c.43.52.17,1.14.19,1.7a19.36,19.36,0,0,1-.16,2.12,24.92,24.92,0,0,1-2.62,1.26c-1.72.61-3.47,1.17-5.24,1.62a8.16,8.16,0,0,1-2.1,0" transform="translate(0 -16.49)"/><path class="cls-1" d="M73.23,61.25c-.36-.14-.74-.24-1.09-.41-1.19-.58-2.36-1.18-3.54-1.77" transform="translate(0 -16.49)"/><path class="cls-1" d="M93.39,25.09c0,1,0,2,0,2.93s-.1,1.91-.13,2.86,0,1.77,0,2.66c0,.09-.08.18-.13.27" transform="translate(0 -16.49)"/><path class="cls-1" d="M68.4,54.37v3.36l4.7,2.43" transform="translate(0 -16.49)"/><path class="cls-1" d="M25,120.7c0,.82.16,1.64.26,2.49l.59.1" transform="translate(0 -16.49)"/><path class="cls-1" d="M80.18,72.35a16.9,16.9,0,0,0,4.36.34" transform="translate(0 -16.49)"/><path class="cls-1" d="M24.28,101.83a1.41,1.41,0,0,1-.13-.41c0-1.25,0-2.5.06-3.75l.75,23" transform="translate(0 -16.49)"/><path class="cls-1" d="M55,57.3c0,1.07.09,2.13.13,3.2,0,.27,0,.54,0,.93-.93.54-2,1.12-3,1.73-.13.08-.19.26-.28.4" transform="translate(0 -16.49)"/><path class="cls-1" d="M45.24,83.72c.11.79.27,1.59.33,2.38s.06,1.86.08,2.79" transform="translate(0 -16.49)"/><path class="cls-1" d="M96.66,68.81a5.68,5.68,0,0,0,3.27.22,14.5,14.5,0,0,1,1.7-.08l2.59-.2" transform="translate(0 -16.49)"/><path class="cls-1" d="M85.9,21.68c-.51.23-15.21.09-15.73.12-1.44.07-2.17-1-3.14-1.68-.46-.34-1-.64-1.43-1" transform="translate(0 -16.49)"/><path class="cls-1" d="M53.62,37.07l-3.27.75-.41.07" transform="translate(0 -16.49)"/><path class="cls-1" d="M92.5,25c0,1.36,0,2.72.07,4.09s.09,3,.14,4.43a1.14,1.14,0,0,0,.13.34" transform="translate(0 -16.49)"/><path class="cls-1" d="M185.79,97.82a4.3,4.3,0,0,0-.2.82c-.06,1.41-.1,2.81-.15,4.22a.79.79,0,0,1-.07.2" transform="translate(0 -16.49)"/><path class="cls-1" d="M130.23,41.09l6.61-.14" transform="translate(0 -16.49)"/><path class="cls-1" d="M163.39,32.24c-.11-.14-.2-.32-.34-.4-.74-.42-1.49-.82-2.27-1.24l-.34-3.82a2.15,2.15,0,0,1,.64.09c.92.43,1.82.89,2.73,1.36a1.76,1.76,0,0,1,.34.27v4" transform="translate(0 -16.49)"/><path class="cls-1" d="M112.66,35.3a12.54,12.54,0,0,0,4.49.28c.88,0,1.77,0,2.66-.07" transform="translate(0 -16.49)"/><path class="cls-1" d="M99.72,58.87l-3.34.34" transform="translate(0 -16.49)"/><path class="cls-1" d="M164.28,28.63l.61.21c0,1.22,0,2.38,0,3.54a.68.68,0,0,0,.53.71,4.51,4.51,0,0,1,1,.79" transform="translate(0 -16.49)"/><path class="cls-1" d="M96.25,25.23a13.16,13.16,0,0,0-1.36-.2c-1.5-.07-3-.1-4.49-.14a2.34,2.34,0,0,0-.37,0v3.48l2.49.15" transform="translate(0 -16.49)"/><path class="cls-1" d="M188.31,93.94c0,.59-.11,1.18-.13,1.77,0,.84,0,1.68-.07,2.52" transform="translate(0 -16.49)"/><path class="cls-1" d="M88,23.52c0,.07.13.14.13.2,0,1.52-.08,3-.13,4.56" transform="translate(0 -16.49)"/><path class="cls-1" d="M119.88,28.49c-.89,0-1.77-.1-2.66-.12-.13,0-.27.17-.41.26" transform="translate(0 -16.49)"/><path class="cls-1" d="M155.83,20.8c0,.82,0,1.63,0,2.45a2.54,2.54,0,0,1-.13.54" transform="translate(0 -16.49)"/><path class="cls-1" d="M96.38,35.78c-.75.07-1.5.17-2.25.19a3,3,0,0,1-.88-.26" transform="translate(0 -16.49)"/><path class="cls-1" d="M124,58.52c-.39,0-.77.11-1.16.13-.77,0-1.54,0-2.32.07" transform="translate(0 -16.49)"/><path class="cls-1" d="M125.8,25.16V28c-.72-.31-.5-.87-.54-1.32s-.09-1-.14-1.43" transform="translate(0 -16.49)"/><path class="cls-1" d="M104.15,28.29l-2.79-.14" transform="translate(0 -16.49)"/><path class="cls-1" d="M40.34,26.72c.75.68,3.75,3.68,4.49,4.36" transform="translate(0 -16.49)"/><path class="cls-1" d="M163.94,57.16c0,.73-.07,1.45-.15,2.18a4.06,4.06,0,0,1-.26.82" transform="translate(0 -16.49)"/><path class="cls-1" d="M160.94,58.52a8.9,8.9,0,0,1,2.4,1.55c.16.17.49.19.74.28" transform="translate(0 -16.49)"/><path class="cls-1" d="M123.62,57.84H121.1" transform="translate(0 -16.49)"/><path class="cls-1" d="M103.74,29.24,101.35,29" transform="translate(0 -16.49)"/><path class="cls-1" d="M150.18,111.1c0,2.86-.1,5.72-.13,8.58,0,.48-.19,1,.19,1.43" transform="translate(0 -16.49)"/><path class="cls-1" d="M31.72,98.86c-.73.41-6.58,3.45-7.31,3.86" transform="translate(0 -16.49)"/><path class="cls-1" d="M119,29.38l-2-.14" transform="translate(0 -16.49)"/><path class="cls-1" d="M160.33,68.81c-.34.52-.68,1-1,1.56a1.09,1.09,0,0,1-.27.21" transform="translate(0 -16.49)"/><path class="cls-1" d="M55.93,47.15l-1.7.75" transform="translate(0 -16.49)"/><path class="cls-1" d="M48.92,122.13l-.2,1.5" transform="translate(0 -16.49)"/><path class="cls-1" d="M45.11,31.15c-.14,1.77-.56,3.88-.27,4.36" transform="translate(0 -16.49)"/><path class="cls-1" d="M133.36,19.23a1.39,1.39,0,0,1-.82,1.23" transform="translate(0 -16.49)"/><path class="cls-1" d="M74.46,50l.07,1.23" transform="translate(0 -16.49)"/><path class="cls-1" d="M133.08,120.82v1h12.06l.14-5.3c0-.48,0-1,0-1.43a12.28,12.28,0,0,0-.07-3.06" transform="translate(0 -16.49)"/><path class="cls-1" d="M49.06,122.4l.34,1.23" transform="translate(0 -16.49)"/><path class="cls-1" d="M147,52.67a1.38,1.38,0,0,1,.13.41c0,.54,0,1.09-.06,1.63" transform="translate(0 -16.49)"/><path class="cls-1" d="M86.1,84v1.23" transform="translate(0 -16.49)"/><path class="cls-1" d="M125.8,28a1.28,1.28,0,0,0,1.63.41" transform="translate(0 -16.49)"/><path class="cls-1" d="M86,21.82l1,.14" transform="translate(0 -16.49)"/><path class="cls-1" d="M52.39,21.34A7.7,7.7,0,0,1,48.72,23" transform="translate(0 -16.49)"/><path class="cls-1" d="M92.91,34.69c0-.3-.48-.63.08-.93.39.31.32.61.05.93" transform="translate(0 -16.49)"/><path class="cls-1" d="M146.77,52.67l.07.68" transform="translate(0 -16.49)"/><path class="cls-1" d="M146.84,51.58v.75" transform="translate(0 -16.49)"/><path class="cls-1" d="M73.43,71.33l-.27.07" transform="translate(0 -16.49)"/><polyline class="cls-1" points="173.45 100.33 173.33 105.5 183.28 106.72 183.21 101.3"/><line class="cls-1" x1="128.1" y1="103.29" x2="128.18" y2="104.22"/><text class="cls-2" transform="translate(24.72 128.24)">EX<tspan class="cls-3" x="18.63" y="0">M</tspan><tspan class="cls-4" x="31.62" y="0">O</tspan><tspan x="42.05" y="0">UTH VIEW </tspan><tspan class="cls-3" x="116.21" y="0">H</tspan><tspan x="127.08" y="0">OTEL</tspan></text></svg>
