<svg id="Layer_1" data-name="Layer 1" xmlns="http://www.w3.org/2000/svg" viewBox="0 0 111.73 224.65"><defs><style>.cls-1{fill:#fff;}</style></defs><title>logo</title><path d="M587.42,412.37c3,12.21,8.77,21,9.49,32.58.47,7.55.07,16,5.05,21.65s13.59,6.41,21,4.89,14.3-4.88,21.74-6c7.17-1.06,14.48,0,21.71-.43s15-2.81,19-8.82c5.53-8.23,2-19.14.42-28.93a67.79,67.79,0,0,1,1.1-27c2.11-8.54,5.91-16.79,6.16-25.58.14-4.74-.78-9.47-.75-14.21.07-11.12,5.05-23.27-.83-32.71-5.23-8.4-16.65-10.24-26.53-9.78-3.46.16-7,.53-10.11,2.09s-5.35,4-8.07,6c-9.66,7-22.64,6.4-34.54,7.46s-25.55,5.87-28.83,17.35c-1.16,4.07-.79,8.41-.41,12.63l4.44,49.19" transform="translate(-582.64 -247.52)"/><path class="cls-1" d="M609,359.46c.09,1.55.18,2.93.27,4.31a.41.41,0,0,0,.07.23,1.87,1.87,0,0,1-.05,2.35,1.49,1.49,0,0,1-1.26.7,1.11,1.11,0,0,1-1.09-.67,3.2,3.2,0,0,1-.39-1.5c0-1.82-.16-3.64-.24-5.46a14.21,14.21,0,0,0,0-1.6,1.68,1.68,0,0,0-1-1.36,5.35,5.35,0,0,1-.91-.77c-.18-.15-.39-.36-.59-.36a7.6,7.6,0,0,0-2,.13,2.82,2.82,0,0,0-1.81,2.07c-.24.68-.47,1.37-.69,2.06A5.76,5.76,0,0,0,599,361c-.07,1.33-.08,2.67-.07,4s.1,2.74.09,4.1-.1,2.79-.16,4.19c0,.07,0,.13,0,.2,0,1.22,0,2.43.08,3.65.05,2.13.1,4.27.18,6.4a6.37,6.37,0,0,0,.27,1.23l.79,3.2c.31,1.27.59,2.55,1,3.81a14.7,14.7,0,0,0,.72,1.63c.16.37.28.76.42,1.14.3.76.89,1.43,1.89,1.07.58-.21,1.16-.32,1.37-1a.26.26,0,0,1,.14-.13,2,2,0,0,0,1.18-1.63c.07-.79.48-1.44.57-2.17a8.84,8.84,0,0,0-.18-1.81,1.33,1.33,0,0,1,0-.58,2.55,2.55,0,0,0-.08-2.15.92.92,0,0,1-.11-.42c0-2,.07-3.9.18-5.85a11.18,11.18,0,0,1,.42-2,1.19,1.19,0,0,1,1-.63c.45,0,.45.38.58.67a12.16,12.16,0,0,0,.72,1.39c.19.33.23.56-.09.85a1.2,1.2,0,0,0-.26.69c-.09.61-.15,1.22-.18,1.83,0,.23.11.47.12.7,0,.85,0,1.69.07,2.54s.11,1.72.15,2.58,0,1.43,0,2.15,0,1.69-.1,2.53a2.41,2.41,0,0,1-.23.78c-.26.61-.53,1.22-.85,1.8a8.57,8.57,0,0,1-.76,1c-.65.85-1.69,1.22-2.44,2-.13.13-.38.14-.57.21a3.12,3.12,0,0,1-2.61,0c-.7-.41-1.59-.82-1.59-1.89a.55.55,0,0,0-.16-.35,3.59,3.59,0,0,1-.7-1.79c-.17-.62-.41-1.22-.61-1.83,0-.09-.09-.2-.06-.28.29-.81-.42-1.36-.51-2.06a7.47,7.47,0,0,0-.77-1.85,11.51,11.51,0,0,1-.41-2.48c-.16-1-.35-2-.48-3a12.75,12.75,0,0,1-.19-3,3.32,3.32,0,0,0,0-1.82,7.63,7.63,0,0,1-.37-1.81c0-.14.1-.31.11-.46,0-.86.09-1.71.11-2.57a24.49,24.49,0,0,1,.06-3.16,17.85,17.85,0,0,0-.07-2.46c0-.45.11-.89.13-1.34s0-.87,0-1.3c0-.66-.06-1.32-.1-2a6.39,6.39,0,0,0-.1-1.45,3,3,0,0,1,.06-1.56c.22-1,.56-1.88.75-2.84a2.22,2.22,0,0,1,.74-1.26.6.6,0,0,0,.17-.29,4,4,0,0,1,1.49-2.24c.12-.09.15-.29.25-.41a2.51,2.51,0,0,1,3-.76,4.44,4.44,0,0,0,.93.27.67.67,0,0,0,.49-.13,1.32,1.32,0,0,1,1.71-.15l0,0c1,0,1.13,1.06,1.82,1.44.07,0,.1.17.12.26.27,1.37.53,2.74.8,4.11C608.89,358.8,609,359.2,609,359.46Z" transform="translate(-582.64 -247.52)"/><path class="cls-1" d="M625.56,358.72c.09.89.23,1.78.26,2.68,0,1.43,0,2.86,0,4.29,0,.92.12,1.85.11,2.77s-.14,1.65-.19,2.47c0,.24.11.48.1.72,0,.92-.15,1.84-.18,2.76,0,1.24,0,2.47-.05,3.71a3.16,3.16,0,0,1,0,.58,21.77,21.77,0,0,0-.08,4.48c0,1.69-.16,3.38-.24,5.07a2.08,2.08,0,0,0,0,.34,8.11,8.11,0,0,1-.87,3.86c-.16.42-.3.85-.5,1.25-.31.63-.72,1.21-1,1.85s-.69.62-1.09.88a1.91,1.91,0,0,1-1.44.26c-.28,0-.58,0-.86-.07a5.92,5.92,0,0,1-.75-.22s-.09-.06-.13-.06c-1,0-1.38-.69-1.89-1.31a5.14,5.14,0,0,0-.76-.8,2.63,2.63,0,0,1-.8-1.72,17.17,17.17,0,0,1-.63-4.77c0-.14-.08-.28-.1-.42s0-.55,0-.82c0-.1.05-.2,0-.29-.28-1.09,0-2.25-.44-3.32a8.12,8.12,0,0,1-.29-1.18.31.31,0,0,1,0-.19c.63-1.29.2-2.57,0-3.85a2.37,2.37,0,0,1,0-.34c0-.77-.06-1.53-.08-2.3,0-.4.07-.81,0-1.22s-.17-.78-.19-1.17c0-.55,0-1.11,0-1.66-.07-.78-.22-1.56-.31-2.34a6.57,6.57,0,0,1,0-1.06c0-.56-.23-1.14.15-1.66a.06.06,0,0,0,0,0c-.37-.71.19-1.31.21-2,0-1,0-2,.06-3a5.09,5.09,0,0,1,.36-2.61,5.92,5.92,0,0,0,.35-1.7q.18-.83.41-1.64a1.36,1.36,0,0,1,.28-.39c.08-.1.24-.2.23-.3,0-.4.3-.54.49-.79.38-.47.7-1,1.1-1.43a3.43,3.43,0,0,1,2.93-1c.5,0,1,0,1.49,0s.8.36,1.1.7c.09.1.22.3.29.28.65-.13,1.09.34,1.62.54a1,1,0,0,1,.72.85c.19,1.22.43,2.43.62,3.64.08.51.06,1,.09,1.56Zm-5.64,34.93c.59-.3,1.46-.15,1.93-.82a4.59,4.59,0,0,0,.76-1.6,29.61,29.61,0,0,0,.45-3.06c.07-.63.1-1.27.12-1.9,0-1,0-2.07.06-3.11,0-.44,0-.88,0-1.31,0-.66.13-1.33.11-2a10.94,10.94,0,0,1,.13-3.92,1.67,1.67,0,0,0,.17-.84,6.37,6.37,0,0,1,0-2q0-.81.11-1.61a3.55,3.55,0,0,0,.1-.67,14.21,14.21,0,0,1-.12-4.23,1.6,1.6,0,0,0,0-.29q0-1,0-2.09c0-1.12,0-2.24-.06-3.35,0-.49-.33-1,0-1.46,0-.05-.09-.19-.13-.29-.22-.57-.45-1.13-.67-1.7a.28.28,0,0,1,0-.24c.35-.33.08-.68,0-1a1.89,1.89,0,0,0-1.09-1.33c-.32-.15-.65-.26-1-.41s-.57-.31-.86-.43a.65.65,0,0,0-.43,0c-.56.2-1.24.16-1.63.75,0,0-.11.06-.18.07a1.38,1.38,0,0,0-1,1,15.49,15.49,0,0,0-1,4c-.07.85-.1,1.69-.17,2.54s-.19,1.54-.23,2.32c0,.5.09,1,.08,1.51,0,1.21-.13,2.43-.09,3.64,0,1.47.17,2.95.28,4.42.15,2.11.33,4.22.48,6.33.06.88.08,1.76.14,2.64s.09,1.94.19,2.91.24,1.77.4,2.65c.21,1.17.18,2.42,1.17,3.32.07.06.06.19.12.26C618.54,392.95,619,393.6,619.93,393.65Z" transform="translate(-582.64 -247.52)"/><path class="cls-1" d="M634.8,447.21c.05-1.25.14-2.5.15-3.75,0-.54-.23-1.09-.19-1.63.06-.8-.52-1.57-.07-2.41.14-.26,0-.69-.07-1s-.22-.72.07-1.06a.42.42,0,0,0,.11-.26c-.05-.82-.12-1.64-.18-2.46a.83.83,0,0,1,0-.38,4.45,4.45,0,0,0,.09-2.35,1.87,1.87,0,0,0-.58-1.15.75.75,0,0,1-.19-.39,2.14,2.14,0,0,1,.56-2.09c.19-.17.19-.59.21-.91,0-.54.05-1.08.05-1.63a4.76,4.76,0,0,0-.08-1.47,3.53,3.53,0,0,1,0-2.39,6.79,6.79,0,0,0,.15-3.21c-.05-.81,0-1.63,0-2.44a6.45,6.45,0,0,0-.05-1.51,2.49,2.49,0,0,0-.66-1c-.43-.44-.23-.92-.15-1.38a3.23,3.23,0,0,1,.3-.76.86.86,0,0,1,.88-.63,6.5,6.5,0,0,1,2.18.23,6.34,6.34,0,0,0,2.18.12,5.34,5.34,0,0,1,2.52.9c.38.18.67.57,1.05.73s.33.49.49.73a6.14,6.14,0,0,1,1,2.55,11.25,11.25,0,0,1-.12,2.21,10.6,10.6,0,0,1-.17,1.09c-.11.57-.23,1.13-.35,1.7,0,.23-.1.47-.17.7a2.15,2.15,0,0,1-.26.72c-.38.49-.83.93-1.23,1.4a.38.38,0,0,0,0,.33,2.56,2.56,0,0,1,.19,2,4.77,4.77,0,0,0,0,2.68c.24,1,.6,1.87.92,2.79a15.08,15.08,0,0,1,.42,2.25c.22,1.19.44,2.38.66,3.57.06.3.08.62.16.92.3,1.17.68,2.33.92,3.51a6.5,6.5,0,0,0,1.05,2.43,4.93,4.93,0,0,1,.37,1.36.89.89,0,0,0,.27.41c.58.47.54.61.33,1.32a1,1,0,0,1-1.21.87,1,1,0,0,1-1-.76,8.94,8.94,0,0,0-.54-1.1l-.08-.17c-.32-.79-.65-1.58-1-2.37a5.06,5.06,0,0,1-.14-.57c-.16-.59-.3-1.18-.48-1.76-.26-.87-.58-1.72-.78-2.6a12.66,12.66,0,0,1-.08-1.63c0-.42-.29-.87-.19-1.23a2.49,2.49,0,0,0-.25-1.61c-.26-.85-.36-1.76-.54-2.63a5.45,5.45,0,0,0-.31-1,10.86,10.86,0,0,1-.73-2.89c0-.19-.21-.53-.31-.53a1.85,1.85,0,0,0-1,.27,1.92,1.92,0,0,0-.9,1.44c0,.26-.17.4-.47.31-.54-.17-.93.17-.92.76,0,1.14.07,2.28.06,3.42s-.11,2.34-.1,3.52a15.05,15.05,0,0,0,.25,1.82,3.36,3.36,0,0,1,0,.47c0,.19,0,.39,0,.58s.07.3,0,.42a3.47,3.47,0,0,0,0,1.92,10,10,0,0,1,.09,1.94,6.64,6.64,0,0,0,.49,2.85.66.66,0,0,1,0,.42,1.43,1.43,0,0,1-2,1.07c-.27-.11-.47-.5-.61-.8a1.9,1.9,0,0,1,0-.73Zm7.57-28.51c0-.13,0-.26,0-.39a4.55,4.55,0,0,0-.89-3c-.32-.34-.55-.87-.93-1a7.94,7.94,0,0,0-2-.37c-.39,0-.8,0-1.2,0s-.47.1-.49.34c-.08.81-.17,1.62-.18,2.43,0,1.61,0,3.22.08,4.83,0,.4,0,.81.07,1.21a10,10,0,0,1,.08,1c0,.55-.08,1.09-.11,1.64a.43.43,0,0,0,.06.23c.1.17.22.47.32.46a1,1,0,0,0,.6-.3c.26-.28.42-.65.69-.91.55-.54,1.17-1,1.72-1.55a6.62,6.62,0,0,0,1.15-1.3,7,7,0,0,0,.5-1.51c.08-.26.08-.65.26-.77C642.52,419.48,642.38,419.09,642.37,418.7Z" transform="translate(-582.64 -247.52)"/><path class="cls-1" d="M643.76,358.43c.22,0,.39,0,.49,0,.65.43,1.21.12,1.82-.14a3.43,3.43,0,0,1,1.44-.49c.68,0,1.36-.22,2-.2s1.22-.59,1.88-.69a.7.7,0,0,1,.49.08c.74.6.81,1,.31,1.89-.27.45-.44,1-1.14,1-1.08.79-2.43.84-3.62,1.31a2.76,2.76,0,0,1-.43,0,17.39,17.39,0,0,0-2,.46c-.26.09-.4.48-.79.4a.5.5,0,0,0-.12.28c0,.29.08.58.09.87,0,.61,0,1.21,0,1.82,0,.37,0,.75,0,1.12,0,1.21.08,2.42.07,3.63,0,.73-.13,1.45-.18,2.17-.09,1.62-.22,3.24-.24,4.86,0,1.15.11,2.31.18,3.47a2.29,2.29,0,0,1,0,.48,8,8,0,0,0,.24,2.9,10.2,10.2,0,0,1,0,1.68c0,.81,0,1.63.1,2.44.1,1,.27,2,.43,3a1.41,1.41,0,0,0,.27.66,1.34,1.34,0,0,1,.18,1.25,8.37,8.37,0,0,0-.16.95c-.07.84-.79,1.52-1.46,1.34a1.34,1.34,0,0,1-1-1.2c0-.87.05-1.74,0-2.62a8.43,8.43,0,0,0-.26-2.88c-.15-.43-.37-1,.07-1.43a.36.36,0,0,0,0-.28c-.11-.52-.23-1-.35-1.57a6.52,6.52,0,0,1-.37-2.81c.07-.33.19-.65.25-1a.89.89,0,0,0-.05-.57,2.53,2.53,0,0,1,0-2.1,1,1,0,0,0,0-.62,2.41,2.41,0,0,1,0-2,.56.56,0,0,0,0-.41c-.36-.51-.18-1,0-1.5a9.28,9.28,0,0,0,.2-2c0-.35,0-.71,0-1.06,0-1.4.15-2.79.15-4.18,0-1.15-.21-2.3-.19-3.44a14.59,14.59,0,0,0-.29-2.18c-.07-.48,0-1,0-1.46a3.82,3.82,0,0,0-.49-2,.37.37,0,0,1,0-.28,2.55,2.55,0,0,0-.07-2,2.54,2.54,0,0,1,0-1c0-.33,0-.65,0-1-.06-.68-.14-1.35-.21-2a.34.34,0,0,1,0-.19c.54-.9-.17-1.71-.15-2.58a7.34,7.34,0,0,1,.05-.88,7.14,7.14,0,0,0,.18-.7,1.42,1.42,0,0,1,2.36-1.06,2.84,2.84,0,0,0,1.26.2c.35,0,.7,0,1.05,0,.08,0,.16,0,.24,0a17.39,17.39,0,0,0,4.53-.3,7.66,7.66,0,0,1,1.75-.13,1.28,1.28,0,0,1,1,1.12,1.41,1.41,0,0,1-.51.87,5.63,5.63,0,0,1-3.51,1.2c-.66.06-1.33.05-2,.08-.09,0-.23,0-.25.07-.16.32-.38.11-.59.1s-.66,0-1,0a4.34,4.34,0,0,1-1,0,.84.84,0,0,0-1.11.66,21.5,21.5,0,0,0-.11,4.52c0,.21,0,.43,0,.63.08.54.19,1.07.26,1.61,0,.34.05.68.08,1S643.74,358.17,643.76,358.43Z" transform="translate(-582.64 -247.52)"/><path class="cls-1" d="M657.75,365.07c.07,0,.22.07.28,0,.27-.21.49-.05.76,0a1.15,1.15,0,0,0,.79-.17,1.89,1.89,0,0,1,1.83-.18,1.63,1.63,0,0,1,.45.61,1.83,1.83,0,0,1-1.16,2.32,9.89,9.89,0,0,1-1.58.34,6.29,6.29,0,0,0-1.15.43c-.08,0-.14.21-.15.32,0,.87-.13,1.75-.11,2.62,0,1.52.16,3,.23,4.54,0,.31-.06.62-.06.92,0,1.17,0,2.34.07,3.51,0,1,.12,2,.23,3a16.62,16.62,0,0,0,.36,2.15,12.36,12.36,0,0,0,.57,1.5,3.09,3.09,0,0,1,.12.32.87.87,0,0,0,1,.79,19.68,19.68,0,0,0,2.62-.14,3.06,3.06,0,0,0,1.24-.68c.27-.21.48-.51.87-.41a.89.89,0,0,1,.65.83,3.27,3.27,0,0,1-.75,2.64,1.4,1.4,0,0,1-.77.35,16.78,16.78,0,0,1-2,.34c-.74.06-1.49,0-2.24.05a2.13,2.13,0,0,0-.61.2c-.09,0-.16.11-.25.13a2.78,2.78,0,0,1-1.58-.78c-.14-.24-.33-.44-.46-.68a11.1,11.1,0,0,1-.58-2.8c-.2-.81-.32-1.65-.44-2.48a.78.78,0,0,1,.1-.58c.3-.3.21-.6.17-.95-.1-1.07-.17-2.15-.25-3.22,0-.33-.08-.67-.08-1,0-.88,0-1.77,0-2.65,0-.19-.08-.38-.08-.58s0-.43,0-.65c0-.89.1-1.78.12-2.66s0-1.68,0-2.52a4.22,4.22,0,0,0-.5-2.13,1.42,1.42,0,0,1,0-1.09,13.62,13.62,0,0,0,.39-5.06c0-1.1,0-2.2.07-3.3a2.08,2.08,0,0,0,0-.54,10.2,10.2,0,0,1,0-2.5c0-.68-.08-1.36-.09-2s0-1.56,0-2.33a16.54,16.54,0,0,0-.06-2.22,4.74,4.74,0,0,0-.56-1.33,1.49,1.49,0,0,1,.08-1.6,12.43,12.43,0,0,0,.67-1.4,7.66,7.66,0,0,1,.48-.93c.08-.13.28-.19.43-.26a5.66,5.66,0,0,1,2.74-.13,8.69,8.69,0,0,0,1.62-.28l1-.2c.14,0,.3,0,.44-.05a1.17,1.17,0,0,1,1.45,1.49,1.84,1.84,0,0,1-.91,1.09c-.2.13-.38.28-.59.4a2.45,2.45,0,0,1-.78.38c-1.12.17-2.25.28-3.38.44a.49.49,0,0,0-.33.29c-.18.74-.32,1.48-.46,2.23a1.4,1.4,0,0,0,0,.39,12.93,12.93,0,0,1,.16,1.83c-.07,1.4.1,2.8,0,4.19,0,.17-.09.34-.12.52a2.84,2.84,0,0,0-.06.63c0,.69.12,1.38.17,2.07s.12,1.62.16,2.44a3.46,3.46,0,0,1-.06.77,4.49,4.49,0,0,0-.14,1.83A7.67,7.67,0,0,1,657.75,365.07Z" transform="translate(-582.64 -247.52)"/><path class="cls-1" d="M672.35,339.83a4.71,4.71,0,0,1,.9-.36,9.06,9.06,0,0,1,1.45-.12c.44,0,.88.07,1.32.06a1,1,0,0,1,1,.49c.21.44.55.86.16,1.48a3.61,3.61,0,0,1-1.33,1,3.35,3.35,0,0,1-1.23.42,2.6,2.6,0,0,1-.92-.1c-.4-.08-.76-.21-1.15.1a1.6,1.6,0,0,1-.8.24A2.73,2.73,0,0,1,671,343c-.3-.06-.42,0-.51.35a8.75,8.75,0,0,1-.67,2.06c-.79,1.41-.46,2.89-.41,4.35,0,.77,0,1.55,0,2.32,0,.95,0,1.89.09,2.84,0,.57.27,1.13.33,1.71.1.92.14,1.84.21,2.76s.1,1.68.19,2.52a.52.52,0,0,0,.71.47,13.66,13.66,0,0,0,3.15-.78c.49-.28.86-.06,1,.5a1.48,1.48,0,0,1-.35,1.49,7.46,7.46,0,0,0-1,1.19c-.28.5-.71.4-1.13.47-.63.1-1.26.23-1.89.38-.07,0-.15.23-.14.35.09,1.3.2,2.59.28,3.89.1,1.54.08,3.09.29,4.61.26,1.88.25,3.79.56,5.65a17.94,17.94,0,0,0,.11,1.86c.17.61.19,1.26.4,1.85a4.87,4.87,0,0,0,.81,1.1,1.1,1.1,0,0,0,1.06.4,6,6,0,0,0,1.86-.21,9.71,9.71,0,0,0,1-.33c.16-.08.26-.32.37-.5a.45.45,0,0,1,.67-.18,1,1,0,0,1,.45.54,8,8,0,0,1,.07,1.31.46.46,0,0,1-.05.28c-.51.59-.71,1.44-1.55,1.75a3,3,0,0,0-.63.44c-.06,0-.15.13-.2.12-.72-.18-1.5.21-2.19-.26a.46.46,0,0,0-.37,0c-.64.27-1.1-.1-1.59-.41s-1.17-.65-1.74-1c-.14-.08-.32-.25-.33-.39,0-.62,0-1.25,0-1.88a16.71,16.71,0,0,0,0-1.94c-.05-.49-.28-1-.38-1.44a1.27,1.27,0,0,1,.06-.77,3.28,3.28,0,0,0,0-2.08c0-.24-.08-.47-.12-.71s-.1-.7-.15-1.06a1.18,1.18,0,0,1,0-.39,7.61,7.61,0,0,0-.3-3.21,4.34,4.34,0,0,1-.09-1.36,15.93,15.93,0,0,0-.17-3.55,5.06,5.06,0,0,1,0-1,4,4,0,0,0-.26-1.91,3.68,3.68,0,0,1,0-1.36,8.77,8.77,0,0,0,0-1.19c-.1-1-.23-2.07-.38-3.09a10.17,10.17,0,0,0-.35-1.07,3.4,3.4,0,0,1-.1-.76c0-.64,0-1.29,0-1.93a9.36,9.36,0,0,0-.11-2,8.91,8.91,0,0,1-.21-2.66c0-.37.11-.73.13-1.1s0-.63,0-1,0-.85,0-1.28,0-1.09-.06-1.64a1.7,1.7,0,0,1,.06-.63,1.91,1.91,0,0,0-.06-2,.39.39,0,0,1-.08-.31,7.62,7.62,0,0,1,1.13-2.11,6,6,0,0,1,2.14-1.15,7.05,7.05,0,0,1,1.68-.21Z" transform="translate(-582.64 -247.52)"/><path class="cls-1" d="M612.72,419c.11,1.39.22,2.78.32,4.16,0,.53,0,1.07,0,1.6,0,.36.14.56.57.54.79,0,1.59,0,2.38,0,.08,0,.2,0,.24,0,.54-.72,1.26-.21,1.89-.29s1-.21,1.54-.31a.73.73,0,0,1,.41,0,1.69,1.69,0,0,0,1.51.05c.37-.18.52,0,.67.27a1.68,1.68,0,0,1-.21,1.55,4.1,4.1,0,0,1-2.27,1.47.79.79,0,0,1-.64-.05.84.84,0,0,0-1-.09,3,3,0,0,1-1.8.2,4,4,0,0,0-2.72.53c-.07,0-.17.1-.18.16a6.18,6.18,0,0,0-.1,1.1c0,.84.19,1.67.18,2.51a33.56,33.56,0,0,0,.1,3.74c.07.71,0,1.43.05,2.14s.23,1.37.32,2.05.14,1.23.18,1.84c0,.35,0,.7,0,1,.12.86-.55,1.54-.53,2.36,0,1.15,0,2.3.12,3.45a6.68,6.68,0,0,0,.34,1.29,1.78,1.78,0,0,1-.68,1.67,1.07,1.07,0,0,1-1.35-.06,1.21,1.21,0,0,1-.55-1.27,16.27,16.27,0,0,0,.3-2,3.7,3.7,0,0,0-.17-.82c-.08-.49-.16-1-.19-1.48-.08-1.11-.11-2.23-.21-3.34a4.21,4.21,0,0,1,0-2.44.63.63,0,0,0,0-.37,8,8,0,0,1-.23-1,16.2,16.2,0,0,1-.07-2.37c.09-1.14-.11-2.28,0-3.38s0-1.9-.06-2.84c0-.63.14-1.26.16-1.89a.83.83,0,0,0-.29-.62c-.72-.47-.56-1.9,0-2.48a1.35,1.35,0,0,0,.33-.85,22.51,22.51,0,0,0-.21-3.45,7.32,7.32,0,0,1-.27-2.17,1.76,1.76,0,0,0-.1-.72.73.73,0,0,0-.31-.42,1.78,1.78,0,0,1-1-2.15c.19-1,.87-1.27,1.71-1.43a4.63,4.63,0,0,0,.62-.23c.1,0,.25-.1.32-.06a2.23,2.23,0,0,0,2,.14,20.46,20.46,0,0,1,2.74-.29,11.76,11.76,0,0,0,1.53-.4c.12,0,.25-.14.37-.12a7.56,7.56,0,0,1,3.34.7,1,1,0,0,1,.1,1.54,2.7,2.7,0,0,1-2.28.63,3.54,3.54,0,0,0-1.56.26c-.74.22-1.44.56-2.17.77a1.22,1.22,0,0,1-.89-.1,1.56,1.56,0,0,0-1.8.2C612.71,417.79,612.73,418.43,612.72,419Z" transform="translate(-582.64 -247.52)"/><path class="cls-1" d="M636.64,362.57c.14.45-.23.75-.54,1a14.52,14.52,0,0,1-1.62.77c-.17.08-.29.27-.46.33-.62.2-1.25.4-1.89.54-.32.07-.64,0-.92.33a.67.67,0,0,0-.25.56q.14,1.84.26,3.68c.08,1.25.13,2.51.23,3.76.06.73.24,1.44.31,2.17.09.91.13,1.82.17,2.73.05,1.14,0,2.28.15,3.41a16.27,16.27,0,0,1,.21,4.48,14.35,14.35,0,0,0,.12,2.33,23.48,23.48,0,0,0,.11,2.49,18,18,0,0,0,.31,2,2.89,2.89,0,0,1-1,2.28c-.31.17-.66-.09-.94-.56a5.2,5.2,0,0,1-.59-3.25,26.31,26.31,0,0,0,.1-2.72c0-1.12-.09-2.24-.17-3.36a6.06,6.06,0,0,0-.22-.79A1.94,1.94,0,0,1,630,384c.07-.38.3-.68.1-1.15-.13-.29.21-.76.21-1.15a9.88,9.88,0,0,0-.2-1.43c0-.22-.14-.49-.06-.66.21-.45,0-.82-.1-1.22a12.33,12.33,0,0,1-.07-1.27c0-.19,0-.39-.06-.58,0-1.09-.08-2.18-.09-3.26a3.79,3.79,0,0,0-.36-2,2.27,2.27,0,0,1-.19-1.37,14.66,14.66,0,0,0-.06-1.69c-.05-.74-.13-1.48-.2-2.22,0-.25-.11-.5-.13-.76a8.28,8.28,0,0,1,0-1.2,13.35,13.35,0,0,0,0-3.26c-.08-.49-.08-1-.15-1.5s-.15-.79-.22-1.18a.88.88,0,0,1,0-.38,4.32,4.32,0,0,0,.18-2.15,2.05,2.05,0,0,1,0-1,2.28,2.28,0,0,0-.43-1.83c-.06-.11-.26-.14-.41-.19l-.82-.25a.6.6,0,0,1-.46-.66.09.09,0,0,0,0,0c-.49-.68,0-1.27.31-1.74a2.82,2.82,0,0,1,1.36-.86c.7-.23,1.46-.29,2.18-.46.31-.07.6-.26.92-.31.9-.15,1.81-.25,2.72-.39a7.24,7.24,0,0,0,.83-.22c.09,0,.21-.12.26-.09.47.28.88-.07,1.31-.13a2.39,2.39,0,0,1,2.11.94.76.76,0,0,1-.22,1c-.33.26-.7.46-1.06.69,0,0-.11,0-.14,0-.42.56-1.13.37-1.63.63a4.87,4.87,0,0,1-2.06.38c-.45,0-.92,0-1.36.11-1.23.22-1.38.48-1.19,1.72a2.68,2.68,0,0,1-.24,2.08.25.25,0,0,0,0,.14c0,1.06,0,2.12.08,3.17s.2,1.8.3,2.71a1.77,1.77,0,0,1,0,.44.67.67,0,0,0,.94.78c.38-.14.74-.32,1.11-.48,0,0,.1-.07.13-.06.58.24.82-.34,1.23-.51a2.6,2.6,0,0,1,.53-.2A1.72,1.72,0,0,1,636.64,362.57Z" transform="translate(-582.64 -247.52)"/><path class="cls-1" d="M649.67,413.2c.11-.21.24-.47.39-.71s.31-.39.44-.59a1.81,1.81,0,0,0,.3-.55,1.25,1.25,0,0,1,1.15-1c.11,0,.28,0,.32-.07.51-.82,1.34-.57,2.07-.62a3.4,3.4,0,0,1,2.2.48c.24.16.6.14.86.29s.57.47.88.67c.5.34.44.94.67,1.4.14.29-.58,1.51-.91,1.57a.51.51,0,0,1-.43-.16,3.29,3.29,0,0,0-1.33-.94s-.11,0-.14,0c-.87-.88-2-.28-3-.48-.1,0-.24.08-.34.15a3.74,3.74,0,0,0-1.23,1.5,6.9,6.9,0,0,0-.4,4.25,3.71,3.71,0,0,0,1.39,2.35,5.79,5.79,0,0,0,1.64,1.06c.26.09.45.37.71.49.51.23,1,.39,1.56.61a4.63,4.63,0,0,1,1,.55,7.32,7.32,0,0,1,1.25,1.18,3.75,3.75,0,0,1,.61,1.25,17.31,17.31,0,0,0,.64,2.48,9.74,9.74,0,0,1,.56,2.47c.23,1.2.21,2.44.46,3.63a15.05,15.05,0,0,1,0,2.44,13.59,13.59,0,0,1-.09,2.23,12.89,12.89,0,0,1-.41,1.67c-.09.36-.18.71-.29,1.06a7.55,7.55,0,0,0-.61,2.38.65.65,0,0,1-.2.43c-.65.61-1.13,1.44-2.08,1.66-.47.11-.94.21-1.41.27s-1.2.13-1.8.2a1.75,1.75,0,0,1-1.95-1.45c0-.08,0-.18-.06-.23-.61-.68-.42-1.5-.42-2.29,0-.31-.06-.61-.06-.92,0-.94-.15-1.91.6-2.69.32-.33.58-.32.69.13.18.74.28,1.5.44,2.25s.27,1.23.46,1.83a1,1,0,0,0,1.27.62l1.82-.47a.74.74,0,0,0,.6-.57,3.36,3.36,0,0,1,.45-.78,1.25,1.25,0,0,0,.18-.29c.17-.66.33-1.32.5-2,.07-.28.14-.56.2-.84a5.22,5.22,0,0,0,.24-1.39c-.06-.73.24-1.49-.16-2.19a1,1,0,0,1-.08-.43c-.07-.86-.09-1.73-.2-2.58a6,6,0,0,0-.41-1.1,3.73,3.73,0,0,1-.14-.61c-.13-.75-.24-1.51-.36-2.26,0-.09,0-.24-.1-.27-.81-.3-.66-1.26-1.21-1.74a4.94,4.94,0,0,0-1.78-1.28,5.48,5.48,0,0,1-.78-.4,2.84,2.84,0,0,0-.84-.36,2.39,2.39,0,0,1-1.55-1.1c-.36-.43-.87-.74-1.24-1.18a4.66,4.66,0,0,1-.73-1.22,10.75,10.75,0,0,1-.46-1.53,1,1,0,0,1,0-.62c.34-.66-.08-1.25-.12-1.87s-.08-1.39-.1-2.08a.49.49,0,0,1,.22-.36c.41-.22.23-.49.12-.78s-.1-.32-.14-.48Z" transform="translate(-582.64 -247.52)"/><path class="cls-1" d="M659.5,410.67a9,9,0,0,1-.08-1,1.52,1.52,0,0,1,2-1.39.49.49,0,0,0,.23,0c.88-.2,1.75-.43,2.63-.6.46-.09.94,0,1.4-.12.61-.1,1.21-.29,1.83-.37s1.3-.34,2,.13a2.39,2.39,0,0,0,1.8.2,1.48,1.48,0,0,0,1.07-.65,1.58,1.58,0,0,1,2.26-.15c.62.62,1.23,1.26,1.8,1.93a.78.78,0,0,1,0,.71c-.12.22-.44.5-.64.48a21.42,21.42,0,0,0-2.87.27c-.37,0-.74-.12-1.11-.13s-.85,0-1.28.06-.68.08-1,.07a.44.44,0,0,0-.52.43c-.09.49-.25,1-.36,1.44a.44.44,0,0,0,0,.33c.45.53.13,1.13.19,1.69,0,.17,0,.35,0,.53,0,1.33.08,2.66.1,4,0,.39-.12.78-.1,1.17,0,1.09.1,2.18.21,3.26.09.84.33,1.66.4,2.49a5.94,5.94,0,0,1-.18,1.36c0,.23-.09.45-.1.68-.07,1.36-.13,2.71-.2,4.07,0,.79-.06,1.59-.13,2.38,0,.56-.2,1.12-.25,1.68-.09.92-.12,1.84-.2,2.76,0,.55-.13,1.09-.19,1.64,0,.22-.11.51,0,.67.3.49.12,1,.19,1.51a5.1,5.1,0,0,0,.38,1.32,8.16,8.16,0,0,0,.65,1,1.53,1.53,0,0,1-1.12,2.22,4,4,0,0,1-1.2-.23.56.56,0,0,1-.28-.31,7,7,0,0,1-.54-2.09c0-.26-.23-.51-.25-.76a2.9,2.9,0,0,1,.08-1.4c.26-.49.07-.87,0-1.31a4.23,4.23,0,0,1,0-.69c0-.14,0-.29.06-.43.07-.53.15-1.06.2-1.59,0-.25,0-.51,0-.77,0-.43.11-.85.16-1.28,0-.15.1-.36,0-.43-.28-.29-.19-.57-.11-.91.22-1,.41-2,.6-3a6.45,6.45,0,0,0,.19-1.17,8.83,8.83,0,0,0-.18-1.14.93.93,0,0,1,0-.52,3.13,3.13,0,0,0,.1-2.19,3.67,3.67,0,0,1,.07-2.06,2.43,2.43,0,0,0,0-1c0-.39-.13-.78-.2-1.17a5.85,5.85,0,0,1-.14-.9c0-1.09,0-2.17,0-3.26,0-.59-.13-1.19-.08-1.78a7.91,7.91,0,0,0-.1-2.12,3.78,3.78,0,0,1,.07-1.35,3.3,3.3,0,0,0-.56-2.27c-.09-.17-.46-.24-.72-.26s-.65.1-1,.07a4.3,4.3,0,0,0-1.81.44,15.62,15.62,0,0,1-1.7.59,1.84,1.84,0,0,1-1-.24A2.66,2.66,0,0,1,659.5,410.67Z" transform="translate(-582.64 -247.52)"/><path class="cls-1" d="M628.95,412.6c.21.17.3.3.42.33a.94.94,0,0,1,.68.75c.08.31.27.59.33.9a1.14,1.14,0,0,1-.07.82,2.32,2.32,0,0,0-.39,1.51c-.05.58,0,1.17,0,1.76-.06,1.2-.16,2.4-.19,3.6,0,1.41,0,2.81,0,4.22,0,.37.17.74.16,1.1,0,1-.09,2-.13,2.93a4.45,4.45,0,0,0,0,.63c0,.41.12.82.14,1.23a17.55,17.55,0,0,1,0,1.76c0,.78-.13,1.56-.2,2.35,0,.1,0,.2,0,.29,0,1.83,0,3.65,0,5.48,0,1.08.16,2.17.06,3.23-.12,1.24.4,2.36.41,3.55a1.55,1.55,0,0,1-.43,1.15,1.68,1.68,0,0,1-1.64,0c-.86-.4-.79-1.07-.67-1.83a16.55,16.55,0,0,0,.08-2.13,10.64,10.64,0,0,1,.06-2.33,6.6,6.6,0,0,0,.14-2c0-.42-.23-.85.13-1.22-.18-.88,0-1.82-.17-2.66a6.44,6.44,0,0,1-.13-2.2c0-.46.18-.92.22-1.39.06-.78,0-1.57.12-2.33a17.35,17.35,0,0,0,0-2.45c0-1,.11-2,.09-3,0-.33-.1-.63.2-.87,0,0,0-.12,0-.18-.08-.65-.21-1.31-.24-2,0-1.07,0-2.14,0-3.21,0-.42.12-.84.1-1.25,0-1-.1-1.94-.16-2.91a.67.67,0,0,0-.1-.37c-.61-.72,0-1.51-.14-2.26C628,413.27,628.26,412.53,628.95,412.6Z" transform="translate(-582.64 -247.52)"/><path d="M667.77,307.83c4.41,1.22,8.32-3.24,10-7.48s2.86-9.26,6.78-11.62a3.34,3.34,0,0,1,1.69-.57c1.47,0,2.49,1.5,2.85,2.92,1,4.19-1.51,8.61-5.06,11.08s-12.59,7-16.28,5.68" transform="translate(-582.64 -247.52)"/><path d="M667.11,310.24c10.42,1.82,12.09-9.42,15.93-16.17.46-.81,1.81-3.3,2.8-3.19,1.71.19.9,3.54.55,4.53-1,2.76-3.36,4.55-5.78,6-3.12,1.82-8.4,5-12.18,4.05-3.12-.81-4.45,4-1.33,4.82,5.19,1.34,11.21-1.82,15.59-4.31,5.11-2.9,9.92-7.88,9-14.26-.84-6.11-6.49-7.54-10.66-3.33-3.85,3.89-5.6,18.31-12.63,17.08-3.15-.55-4.5,4.27-1.33,4.82Z" transform="translate(-582.64 -247.52)"/><path d="M677.69,277.37a92.07,92.07,0,0,1,2-18.54c.55-2.6,1.3-5.34,3.24-7.15s5.47-2.17,7.08-.05a5.83,5.83,0,0,1,.87,4,14,14,0,0,1-2.9,7.42c-1.31,1.67-3,3-4.42,4.59-2.83,3.09-5.26,5.56-5.85,9.7" transform="translate(-582.64 -247.52)"/><path d="M680.19,277.37a92.41,92.41,0,0,1,1.51-16,35.65,35.65,0,0,1,1-4.44,6.9,6.9,0,0,1,2.36-3.73q4.27,1.79,2.72,5c-1,4-5.48,6.94-8.06,10a18.65,18.65,0,0,0-4.47,8.57c-.65,3.14,4.17,4.48,4.82,1.33,1.51-7.33,9.12-10.44,11.94-17,1.83-4.28,2.41-11.25-3.16-13-13.62-4.29-13.59,22.29-13.69,29.39,0,3.22,5,3.22,5,0Z" transform="translate(-582.64 -247.52)"/><path d="M661.49,295.45c1.72-2.23,2.12-5.23,1.91-8s-.93-5.56-1.2-8.36a3.27,3.27,0,0,1,.6-2.7,3.42,3.42,0,0,1,2-.73,3.56,3.56,0,0,1,2.78.42,3.35,3.35,0,0,1,.75,2.93,22,22,0,0,1-3.58,10.11,14.66,14.66,0,0,0-1.48,2.45c-.48,1.15-.57,2.47-1.28,3.49" transform="translate(-582.64 -247.52)"/><path d="M663.65,296.71a13.8,13.8,0,0,0,2.26-6.87c.21-3.22-1.41-6.65-1.06-9.73q-.65-1.44,1-2.07a7,7,0,0,1-.28,2.95,19.56,19.56,0,0,1-1.88,5.09c-.62,1.16-1.45,2.19-2.09,3.34-.77,1.38-1,2.93-1.71,4.34-1.42,2.87,2.89,5.41,4.32,2.52,1.1-2.21,1.82-4.39,3.13-6.51a24.51,24.51,0,0,0,2.89-6.8c.85-3.37,1.6-8.5-2.74-9.75-3.26-.94-7.16.69-7.68,4.19-.86,5.76,3.19,11.29-.43,16.78-1.78,2.69,2.55,5.2,4.32,2.52Z" transform="translate(-582.64 -247.52)"/></svg>
